%TF.GenerationSoftware,KiCad,Pcbnew,7.0.7*%
%TF.CreationDate,2024-02-09T14:16:55-05:00*%
%TF.ProjectId,key-fob-pcb,6b65792d-666f-4622-9d70-63622e6b6963,rev?*%
%TF.SameCoordinates,Original*%
%TF.FileFunction,Drillmap*%
%TF.FilePolarity,Positive*%
%FSLAX45Y45*%
G04 Gerber Fmt 4.5, Leading zero omitted, Abs format (unit mm)*
G04 Created by KiCad (PCBNEW 7.0.7) date 2024-02-09 14:16:55*
%MOMM*%
%LPD*%
G01*
G04 APERTURE LIST*
%ADD10C,0.038100*%
%ADD11C,0.200000*%
%ADD12C,0.030000*%
%ADD13C,0.102000*%
%ADD14C,0.320000*%
G04 APERTURE END LIST*
D10*
X13825000Y-15700000D02*
X16775000Y-15700000D01*
X14725000Y-8650000D02*
X13825000Y-8650000D01*
X14725000Y-9425000D02*
X14725000Y-8650000D01*
X16775000Y-9425000D02*
X14725000Y-9425000D01*
X16775000Y-15700000D02*
X16775000Y-9425000D01*
X13825000Y-8650000D02*
X13825000Y-15700000D01*
D11*
D12*
X13990000Y-11925000D02*
X14020000Y-11955000D01*
X14020000Y-11925000D02*
X13990000Y-11955000D01*
X13990000Y-12005000D02*
X14020000Y-12035000D01*
X14020000Y-12005000D02*
X13990000Y-12035000D01*
X14005000Y-10125000D02*
X14035000Y-10155000D01*
X14035000Y-10125000D02*
X14005000Y-10155000D01*
X14015000Y-10675000D02*
X14045000Y-10705000D01*
X14045000Y-10675000D02*
X14015000Y-10705000D01*
X14180000Y-11525000D02*
X14210000Y-11555000D01*
X14210000Y-11525000D02*
X14180000Y-11555000D01*
X14345000Y-10902500D02*
X14375000Y-10932500D01*
X14375000Y-10902500D02*
X14345000Y-10932500D01*
X14415000Y-10015000D02*
X14445000Y-10045000D01*
X14445000Y-10015000D02*
X14415000Y-10045000D01*
X14575000Y-10905000D02*
X14605000Y-10935000D01*
X14605000Y-10905000D02*
X14575000Y-10935000D01*
X14585000Y-10015000D02*
X14615000Y-10045000D01*
X14615000Y-10015000D02*
X14585000Y-10045000D01*
X14635000Y-10410000D02*
X14665000Y-10440000D01*
X14665000Y-10410000D02*
X14635000Y-10440000D01*
X14665000Y-12085000D02*
X14695000Y-12115000D01*
X14695000Y-12085000D02*
X14665000Y-12115000D01*
X14745000Y-12085000D02*
X14775000Y-12115000D01*
X14775000Y-12085000D02*
X14745000Y-12115000D01*
X14745000Y-12155000D02*
X14775000Y-12185000D01*
X14775000Y-12155000D02*
X14745000Y-12185000D01*
X14825000Y-12085000D02*
X14855000Y-12115000D01*
X14855000Y-12085000D02*
X14825000Y-12115000D01*
X14825000Y-12155000D02*
X14855000Y-12185000D01*
X14855000Y-12155000D02*
X14825000Y-12185000D01*
X15060000Y-10585000D02*
X15090000Y-10615000D01*
X15090000Y-10585000D02*
X15060000Y-10615000D01*
X15325000Y-10145000D02*
X15355000Y-10175000D01*
X15355000Y-10145000D02*
X15325000Y-10175000D01*
X15325000Y-10275000D02*
X15355000Y-10305000D01*
X15355000Y-10275000D02*
X15325000Y-10305000D01*
X15325000Y-10425000D02*
X15355000Y-10455000D01*
X15355000Y-10425000D02*
X15325000Y-10455000D01*
X15425000Y-10045000D02*
X15455000Y-10075000D01*
X15455000Y-10045000D02*
X15425000Y-10075000D01*
X15425000Y-10515000D02*
X15455000Y-10545000D01*
X15455000Y-10515000D02*
X15425000Y-10545000D01*
X15565000Y-10045000D02*
X15595000Y-10075000D01*
X15595000Y-10045000D02*
X15565000Y-10075000D01*
X15565000Y-10515000D02*
X15595000Y-10545000D01*
X15595000Y-10515000D02*
X15565000Y-10545000D01*
X15685000Y-11035000D02*
X15715000Y-11065000D01*
X15715000Y-11035000D02*
X15685000Y-11065000D01*
X15705000Y-10045000D02*
X15735000Y-10075000D01*
X15735000Y-10045000D02*
X15705000Y-10075000D01*
X15705000Y-10515000D02*
X15735000Y-10545000D01*
X15735000Y-10515000D02*
X15705000Y-10545000D01*
X15795000Y-10145000D02*
X15825000Y-10175000D01*
X15825000Y-10145000D02*
X15795000Y-10175000D01*
X15795000Y-10275000D02*
X15825000Y-10305000D01*
X15825000Y-10275000D02*
X15795000Y-10305000D01*
X15795000Y-10425000D02*
X15825000Y-10455000D01*
X15825000Y-10425000D02*
X15795000Y-10455000D01*
X15835000Y-10785000D02*
X15865000Y-10815000D01*
X15865000Y-10785000D02*
X15835000Y-10815000D01*
X15910000Y-11135000D02*
X15940000Y-11165000D01*
X15940000Y-11135000D02*
X15910000Y-11165000D01*
X15910000Y-11485000D02*
X15940000Y-11515000D01*
X15940000Y-11485000D02*
X15910000Y-11515000D01*
X16010000Y-11135000D02*
X16040000Y-11165000D01*
X16040000Y-11135000D02*
X16010000Y-11165000D01*
X16010000Y-11485000D02*
X16040000Y-11515000D01*
X16040000Y-11485000D02*
X16010000Y-11515000D01*
X16185000Y-11495000D02*
X16215000Y-11525000D01*
X16215000Y-11495000D02*
X16185000Y-11525000D01*
D13*
X14576000Y-14550000D02*
G75*
G03*
X14576000Y-14550000I-51000J0D01*
G01*
X15846000Y-14550000D02*
G75*
G03*
X15846000Y-14550000I-51000J0D01*
G01*
D14*
X14275000Y-8940000D02*
X14275000Y-9260000D01*
X14115000Y-9100000D02*
X14435000Y-9100000D01*
X16325000Y-15090000D02*
X16325000Y-15410000D01*
X16165000Y-15250000D02*
X16485000Y-15250000D01*
D11*
X14083872Y-16013389D02*
X14083872Y-15813389D01*
X14083872Y-15813389D02*
X14131491Y-15813389D01*
X14131491Y-15813389D02*
X14160062Y-15822913D01*
X14160062Y-15822913D02*
X14179110Y-15841960D01*
X14179110Y-15841960D02*
X14188634Y-15861008D01*
X14188634Y-15861008D02*
X14198157Y-15899103D01*
X14198157Y-15899103D02*
X14198157Y-15927674D01*
X14198157Y-15927674D02*
X14188634Y-15965770D01*
X14188634Y-15965770D02*
X14179110Y-15984817D01*
X14179110Y-15984817D02*
X14160062Y-16003865D01*
X14160062Y-16003865D02*
X14131491Y-16013389D01*
X14131491Y-16013389D02*
X14083872Y-16013389D01*
X14283872Y-16013389D02*
X14283872Y-15880055D01*
X14283872Y-15918151D02*
X14293396Y-15899103D01*
X14293396Y-15899103D02*
X14302919Y-15889579D01*
X14302919Y-15889579D02*
X14321967Y-15880055D01*
X14321967Y-15880055D02*
X14341015Y-15880055D01*
X14407681Y-16013389D02*
X14407681Y-15880055D01*
X14407681Y-15813389D02*
X14398157Y-15822913D01*
X14398157Y-15822913D02*
X14407681Y-15832436D01*
X14407681Y-15832436D02*
X14417205Y-15822913D01*
X14417205Y-15822913D02*
X14407681Y-15813389D01*
X14407681Y-15813389D02*
X14407681Y-15832436D01*
X14531491Y-16013389D02*
X14512443Y-16003865D01*
X14512443Y-16003865D02*
X14502919Y-15984817D01*
X14502919Y-15984817D02*
X14502919Y-15813389D01*
X14636253Y-16013389D02*
X14617205Y-16003865D01*
X14617205Y-16003865D02*
X14607681Y-15984817D01*
X14607681Y-15984817D02*
X14607681Y-15813389D01*
X14864824Y-16013389D02*
X14864824Y-15813389D01*
X14864824Y-15813389D02*
X14931491Y-15956246D01*
X14931491Y-15956246D02*
X14998157Y-15813389D01*
X14998157Y-15813389D02*
X14998157Y-16013389D01*
X15179110Y-16013389D02*
X15179110Y-15908627D01*
X15179110Y-15908627D02*
X15169586Y-15889579D01*
X15169586Y-15889579D02*
X15150538Y-15880055D01*
X15150538Y-15880055D02*
X15112443Y-15880055D01*
X15112443Y-15880055D02*
X15093396Y-15889579D01*
X15179110Y-16003865D02*
X15160062Y-16013389D01*
X15160062Y-16013389D02*
X15112443Y-16013389D01*
X15112443Y-16013389D02*
X15093396Y-16003865D01*
X15093396Y-16003865D02*
X15083872Y-15984817D01*
X15083872Y-15984817D02*
X15083872Y-15965770D01*
X15083872Y-15965770D02*
X15093396Y-15946722D01*
X15093396Y-15946722D02*
X15112443Y-15937198D01*
X15112443Y-15937198D02*
X15160062Y-15937198D01*
X15160062Y-15937198D02*
X15179110Y-15927674D01*
X15274348Y-15880055D02*
X15274348Y-16080055D01*
X15274348Y-15889579D02*
X15293396Y-15880055D01*
X15293396Y-15880055D02*
X15331491Y-15880055D01*
X15331491Y-15880055D02*
X15350538Y-15889579D01*
X15350538Y-15889579D02*
X15360062Y-15899103D01*
X15360062Y-15899103D02*
X15369586Y-15918151D01*
X15369586Y-15918151D02*
X15369586Y-15975293D01*
X15369586Y-15975293D02*
X15360062Y-15994341D01*
X15360062Y-15994341D02*
X15350538Y-16003865D01*
X15350538Y-16003865D02*
X15331491Y-16013389D01*
X15331491Y-16013389D02*
X15293396Y-16013389D01*
X15293396Y-16013389D02*
X15274348Y-16003865D01*
X15455300Y-15994341D02*
X15464824Y-16003865D01*
X15464824Y-16003865D02*
X15455300Y-16013389D01*
X15455300Y-16013389D02*
X15445777Y-16003865D01*
X15445777Y-16003865D02*
X15455300Y-15994341D01*
X15455300Y-15994341D02*
X15455300Y-16013389D01*
X15455300Y-15889579D02*
X15464824Y-15899103D01*
X15464824Y-15899103D02*
X15455300Y-15908627D01*
X15455300Y-15908627D02*
X15445777Y-15899103D01*
X15445777Y-15899103D02*
X15455300Y-15889579D01*
X15455300Y-15889579D02*
X15455300Y-15908627D01*
D12*
X13793095Y-16326905D02*
X13823095Y-16356905D01*
X13823095Y-16326905D02*
X13793095Y-16356905D01*
D11*
X14121967Y-16233389D02*
X14141015Y-16233389D01*
X14141015Y-16233389D02*
X14160062Y-16242913D01*
X14160062Y-16242913D02*
X14169586Y-16252436D01*
X14169586Y-16252436D02*
X14179110Y-16271484D01*
X14179110Y-16271484D02*
X14188634Y-16309579D01*
X14188634Y-16309579D02*
X14188634Y-16357198D01*
X14188634Y-16357198D02*
X14179110Y-16395293D01*
X14179110Y-16395293D02*
X14169586Y-16414341D01*
X14169586Y-16414341D02*
X14160062Y-16423865D01*
X14160062Y-16423865D02*
X14141015Y-16433389D01*
X14141015Y-16433389D02*
X14121967Y-16433389D01*
X14121967Y-16433389D02*
X14102919Y-16423865D01*
X14102919Y-16423865D02*
X14093396Y-16414341D01*
X14093396Y-16414341D02*
X14083872Y-16395293D01*
X14083872Y-16395293D02*
X14074348Y-16357198D01*
X14074348Y-16357198D02*
X14074348Y-16309579D01*
X14074348Y-16309579D02*
X14083872Y-16271484D01*
X14083872Y-16271484D02*
X14093396Y-16252436D01*
X14093396Y-16252436D02*
X14102919Y-16242913D01*
X14102919Y-16242913D02*
X14121967Y-16233389D01*
X14274348Y-16414341D02*
X14283872Y-16423865D01*
X14283872Y-16423865D02*
X14274348Y-16433389D01*
X14274348Y-16433389D02*
X14264824Y-16423865D01*
X14264824Y-16423865D02*
X14274348Y-16414341D01*
X14274348Y-16414341D02*
X14274348Y-16433389D01*
X14350538Y-16233389D02*
X14474348Y-16233389D01*
X14474348Y-16233389D02*
X14407681Y-16309579D01*
X14407681Y-16309579D02*
X14436253Y-16309579D01*
X14436253Y-16309579D02*
X14455300Y-16319103D01*
X14455300Y-16319103D02*
X14464824Y-16328627D01*
X14464824Y-16328627D02*
X14474348Y-16347674D01*
X14474348Y-16347674D02*
X14474348Y-16395293D01*
X14474348Y-16395293D02*
X14464824Y-16414341D01*
X14464824Y-16414341D02*
X14455300Y-16423865D01*
X14455300Y-16423865D02*
X14436253Y-16433389D01*
X14436253Y-16433389D02*
X14379110Y-16433389D01*
X14379110Y-16433389D02*
X14360062Y-16423865D01*
X14360062Y-16423865D02*
X14350538Y-16414341D01*
X14598157Y-16233389D02*
X14617205Y-16233389D01*
X14617205Y-16233389D02*
X14636253Y-16242913D01*
X14636253Y-16242913D02*
X14645777Y-16252436D01*
X14645777Y-16252436D02*
X14655300Y-16271484D01*
X14655300Y-16271484D02*
X14664824Y-16309579D01*
X14664824Y-16309579D02*
X14664824Y-16357198D01*
X14664824Y-16357198D02*
X14655300Y-16395293D01*
X14655300Y-16395293D02*
X14645777Y-16414341D01*
X14645777Y-16414341D02*
X14636253Y-16423865D01*
X14636253Y-16423865D02*
X14617205Y-16433389D01*
X14617205Y-16433389D02*
X14598157Y-16433389D01*
X14598157Y-16433389D02*
X14579110Y-16423865D01*
X14579110Y-16423865D02*
X14569586Y-16414341D01*
X14569586Y-16414341D02*
X14560062Y-16395293D01*
X14560062Y-16395293D02*
X14550538Y-16357198D01*
X14550538Y-16357198D02*
X14550538Y-16309579D01*
X14550538Y-16309579D02*
X14560062Y-16271484D01*
X14560062Y-16271484D02*
X14569586Y-16252436D01*
X14569586Y-16252436D02*
X14579110Y-16242913D01*
X14579110Y-16242913D02*
X14598157Y-16233389D01*
X14788634Y-16233389D02*
X14807681Y-16233389D01*
X14807681Y-16233389D02*
X14826729Y-16242913D01*
X14826729Y-16242913D02*
X14836253Y-16252436D01*
X14836253Y-16252436D02*
X14845777Y-16271484D01*
X14845777Y-16271484D02*
X14855300Y-16309579D01*
X14855300Y-16309579D02*
X14855300Y-16357198D01*
X14855300Y-16357198D02*
X14845777Y-16395293D01*
X14845777Y-16395293D02*
X14836253Y-16414341D01*
X14836253Y-16414341D02*
X14826729Y-16423865D01*
X14826729Y-16423865D02*
X14807681Y-16433389D01*
X14807681Y-16433389D02*
X14788634Y-16433389D01*
X14788634Y-16433389D02*
X14769586Y-16423865D01*
X14769586Y-16423865D02*
X14760062Y-16414341D01*
X14760062Y-16414341D02*
X14750538Y-16395293D01*
X14750538Y-16395293D02*
X14741015Y-16357198D01*
X14741015Y-16357198D02*
X14741015Y-16309579D01*
X14741015Y-16309579D02*
X14750538Y-16271484D01*
X14750538Y-16271484D02*
X14760062Y-16252436D01*
X14760062Y-16252436D02*
X14769586Y-16242913D01*
X14769586Y-16242913D02*
X14788634Y-16233389D01*
X14941015Y-16433389D02*
X14941015Y-16300055D01*
X14941015Y-16319103D02*
X14950538Y-16309579D01*
X14950538Y-16309579D02*
X14969586Y-16300055D01*
X14969586Y-16300055D02*
X14998158Y-16300055D01*
X14998158Y-16300055D02*
X15017205Y-16309579D01*
X15017205Y-16309579D02*
X15026729Y-16328627D01*
X15026729Y-16328627D02*
X15026729Y-16433389D01*
X15026729Y-16328627D02*
X15036253Y-16309579D01*
X15036253Y-16309579D02*
X15055300Y-16300055D01*
X15055300Y-16300055D02*
X15083872Y-16300055D01*
X15083872Y-16300055D02*
X15102919Y-16309579D01*
X15102919Y-16309579D02*
X15112443Y-16328627D01*
X15112443Y-16328627D02*
X15112443Y-16433389D01*
X15207681Y-16433389D02*
X15207681Y-16300055D01*
X15207681Y-16319103D02*
X15217205Y-16309579D01*
X15217205Y-16309579D02*
X15236253Y-16300055D01*
X15236253Y-16300055D02*
X15264824Y-16300055D01*
X15264824Y-16300055D02*
X15283872Y-16309579D01*
X15283872Y-16309579D02*
X15293396Y-16328627D01*
X15293396Y-16328627D02*
X15293396Y-16433389D01*
X15293396Y-16328627D02*
X15302919Y-16309579D01*
X15302919Y-16309579D02*
X15321967Y-16300055D01*
X15321967Y-16300055D02*
X15350538Y-16300055D01*
X15350538Y-16300055D02*
X15369586Y-16309579D01*
X15369586Y-16309579D02*
X15379110Y-16328627D01*
X15379110Y-16328627D02*
X15379110Y-16433389D01*
X15769586Y-16223865D02*
X15598158Y-16481008D01*
X16026729Y-16233389D02*
X16045777Y-16233389D01*
X16045777Y-16233389D02*
X16064824Y-16242913D01*
X16064824Y-16242913D02*
X16074348Y-16252436D01*
X16074348Y-16252436D02*
X16083872Y-16271484D01*
X16083872Y-16271484D02*
X16093396Y-16309579D01*
X16093396Y-16309579D02*
X16093396Y-16357198D01*
X16093396Y-16357198D02*
X16083872Y-16395293D01*
X16083872Y-16395293D02*
X16074348Y-16414341D01*
X16074348Y-16414341D02*
X16064824Y-16423865D01*
X16064824Y-16423865D02*
X16045777Y-16433389D01*
X16045777Y-16433389D02*
X16026729Y-16433389D01*
X16026729Y-16433389D02*
X16007681Y-16423865D01*
X16007681Y-16423865D02*
X15998158Y-16414341D01*
X15998158Y-16414341D02*
X15988634Y-16395293D01*
X15988634Y-16395293D02*
X15979110Y-16357198D01*
X15979110Y-16357198D02*
X15979110Y-16309579D01*
X15979110Y-16309579D02*
X15988634Y-16271484D01*
X15988634Y-16271484D02*
X15998158Y-16252436D01*
X15998158Y-16252436D02*
X16007681Y-16242913D01*
X16007681Y-16242913D02*
X16026729Y-16233389D01*
X16179110Y-16414341D02*
X16188634Y-16423865D01*
X16188634Y-16423865D02*
X16179110Y-16433389D01*
X16179110Y-16433389D02*
X16169586Y-16423865D01*
X16169586Y-16423865D02*
X16179110Y-16414341D01*
X16179110Y-16414341D02*
X16179110Y-16433389D01*
X16312443Y-16233389D02*
X16331491Y-16233389D01*
X16331491Y-16233389D02*
X16350539Y-16242913D01*
X16350539Y-16242913D02*
X16360062Y-16252436D01*
X16360062Y-16252436D02*
X16369586Y-16271484D01*
X16369586Y-16271484D02*
X16379110Y-16309579D01*
X16379110Y-16309579D02*
X16379110Y-16357198D01*
X16379110Y-16357198D02*
X16369586Y-16395293D01*
X16369586Y-16395293D02*
X16360062Y-16414341D01*
X16360062Y-16414341D02*
X16350539Y-16423865D01*
X16350539Y-16423865D02*
X16331491Y-16433389D01*
X16331491Y-16433389D02*
X16312443Y-16433389D01*
X16312443Y-16433389D02*
X16293396Y-16423865D01*
X16293396Y-16423865D02*
X16283872Y-16414341D01*
X16283872Y-16414341D02*
X16274348Y-16395293D01*
X16274348Y-16395293D02*
X16264824Y-16357198D01*
X16264824Y-16357198D02*
X16264824Y-16309579D01*
X16264824Y-16309579D02*
X16274348Y-16271484D01*
X16274348Y-16271484D02*
X16283872Y-16252436D01*
X16283872Y-16252436D02*
X16293396Y-16242913D01*
X16293396Y-16242913D02*
X16312443Y-16233389D01*
X16569586Y-16433389D02*
X16455301Y-16433389D01*
X16512443Y-16433389D02*
X16512443Y-16233389D01*
X16512443Y-16233389D02*
X16493396Y-16261960D01*
X16493396Y-16261960D02*
X16474348Y-16281008D01*
X16474348Y-16281008D02*
X16455301Y-16290532D01*
X16760062Y-16433389D02*
X16645777Y-16433389D01*
X16702920Y-16433389D02*
X16702920Y-16233389D01*
X16702920Y-16233389D02*
X16683872Y-16261960D01*
X16683872Y-16261960D02*
X16664824Y-16281008D01*
X16664824Y-16281008D02*
X16645777Y-16290532D01*
X16874348Y-16319103D02*
X16855301Y-16309579D01*
X16855301Y-16309579D02*
X16845777Y-16300055D01*
X16845777Y-16300055D02*
X16836253Y-16281008D01*
X16836253Y-16281008D02*
X16836253Y-16271484D01*
X16836253Y-16271484D02*
X16845777Y-16252436D01*
X16845777Y-16252436D02*
X16855301Y-16242913D01*
X16855301Y-16242913D02*
X16874348Y-16233389D01*
X16874348Y-16233389D02*
X16912444Y-16233389D01*
X16912444Y-16233389D02*
X16931491Y-16242913D01*
X16931491Y-16242913D02*
X16941015Y-16252436D01*
X16941015Y-16252436D02*
X16950539Y-16271484D01*
X16950539Y-16271484D02*
X16950539Y-16281008D01*
X16950539Y-16281008D02*
X16941015Y-16300055D01*
X16941015Y-16300055D02*
X16931491Y-16309579D01*
X16931491Y-16309579D02*
X16912444Y-16319103D01*
X16912444Y-16319103D02*
X16874348Y-16319103D01*
X16874348Y-16319103D02*
X16855301Y-16328627D01*
X16855301Y-16328627D02*
X16845777Y-16338151D01*
X16845777Y-16338151D02*
X16836253Y-16357198D01*
X16836253Y-16357198D02*
X16836253Y-16395293D01*
X16836253Y-16395293D02*
X16845777Y-16414341D01*
X16845777Y-16414341D02*
X16855301Y-16423865D01*
X16855301Y-16423865D02*
X16874348Y-16433389D01*
X16874348Y-16433389D02*
X16912444Y-16433389D01*
X16912444Y-16433389D02*
X16931491Y-16423865D01*
X16931491Y-16423865D02*
X16941015Y-16414341D01*
X16941015Y-16414341D02*
X16950539Y-16395293D01*
X16950539Y-16395293D02*
X16950539Y-16357198D01*
X16950539Y-16357198D02*
X16941015Y-16338151D01*
X16941015Y-16338151D02*
X16931491Y-16328627D01*
X16931491Y-16328627D02*
X16912444Y-16319103D01*
X17026729Y-16233389D02*
X17026729Y-16271484D01*
X17102920Y-16233389D02*
X17102920Y-16271484D01*
X17398158Y-16509579D02*
X17388634Y-16500055D01*
X17388634Y-16500055D02*
X17369586Y-16471484D01*
X17369586Y-16471484D02*
X17360063Y-16452436D01*
X17360063Y-16452436D02*
X17350539Y-16423865D01*
X17350539Y-16423865D02*
X17341015Y-16376246D01*
X17341015Y-16376246D02*
X17341015Y-16338151D01*
X17341015Y-16338151D02*
X17350539Y-16290532D01*
X17350539Y-16290532D02*
X17360063Y-16261960D01*
X17360063Y-16261960D02*
X17369586Y-16242913D01*
X17369586Y-16242913D02*
X17388634Y-16214341D01*
X17388634Y-16214341D02*
X17398158Y-16204817D01*
X17455301Y-16233389D02*
X17579110Y-16233389D01*
X17579110Y-16233389D02*
X17512444Y-16309579D01*
X17512444Y-16309579D02*
X17541015Y-16309579D01*
X17541015Y-16309579D02*
X17560063Y-16319103D01*
X17560063Y-16319103D02*
X17569586Y-16328627D01*
X17569586Y-16328627D02*
X17579110Y-16347674D01*
X17579110Y-16347674D02*
X17579110Y-16395293D01*
X17579110Y-16395293D02*
X17569586Y-16414341D01*
X17569586Y-16414341D02*
X17560063Y-16423865D01*
X17560063Y-16423865D02*
X17541015Y-16433389D01*
X17541015Y-16433389D02*
X17483872Y-16433389D01*
X17483872Y-16433389D02*
X17464825Y-16423865D01*
X17464825Y-16423865D02*
X17455301Y-16414341D01*
X17760063Y-16233389D02*
X17664825Y-16233389D01*
X17664825Y-16233389D02*
X17655301Y-16328627D01*
X17655301Y-16328627D02*
X17664825Y-16319103D01*
X17664825Y-16319103D02*
X17683872Y-16309579D01*
X17683872Y-16309579D02*
X17731491Y-16309579D01*
X17731491Y-16309579D02*
X17750539Y-16319103D01*
X17750539Y-16319103D02*
X17760063Y-16328627D01*
X17760063Y-16328627D02*
X17769586Y-16347674D01*
X17769586Y-16347674D02*
X17769586Y-16395293D01*
X17769586Y-16395293D02*
X17760063Y-16414341D01*
X17760063Y-16414341D02*
X17750539Y-16423865D01*
X17750539Y-16423865D02*
X17731491Y-16433389D01*
X17731491Y-16433389D02*
X17683872Y-16433389D01*
X17683872Y-16433389D02*
X17664825Y-16423865D01*
X17664825Y-16423865D02*
X17655301Y-16414341D01*
X18007682Y-16433389D02*
X18007682Y-16233389D01*
X18093396Y-16433389D02*
X18093396Y-16328627D01*
X18093396Y-16328627D02*
X18083872Y-16309579D01*
X18083872Y-16309579D02*
X18064825Y-16300055D01*
X18064825Y-16300055D02*
X18036253Y-16300055D01*
X18036253Y-16300055D02*
X18017206Y-16309579D01*
X18017206Y-16309579D02*
X18007682Y-16319103D01*
X18217206Y-16433389D02*
X18198158Y-16423865D01*
X18198158Y-16423865D02*
X18188634Y-16414341D01*
X18188634Y-16414341D02*
X18179110Y-16395293D01*
X18179110Y-16395293D02*
X18179110Y-16338151D01*
X18179110Y-16338151D02*
X18188634Y-16319103D01*
X18188634Y-16319103D02*
X18198158Y-16309579D01*
X18198158Y-16309579D02*
X18217206Y-16300055D01*
X18217206Y-16300055D02*
X18245777Y-16300055D01*
X18245777Y-16300055D02*
X18264825Y-16309579D01*
X18264825Y-16309579D02*
X18274348Y-16319103D01*
X18274348Y-16319103D02*
X18283872Y-16338151D01*
X18283872Y-16338151D02*
X18283872Y-16395293D01*
X18283872Y-16395293D02*
X18274348Y-16414341D01*
X18274348Y-16414341D02*
X18264825Y-16423865D01*
X18264825Y-16423865D02*
X18245777Y-16433389D01*
X18245777Y-16433389D02*
X18217206Y-16433389D01*
X18398158Y-16433389D02*
X18379110Y-16423865D01*
X18379110Y-16423865D02*
X18369587Y-16404817D01*
X18369587Y-16404817D02*
X18369587Y-16233389D01*
X18550539Y-16423865D02*
X18531491Y-16433389D01*
X18531491Y-16433389D02*
X18493396Y-16433389D01*
X18493396Y-16433389D02*
X18474348Y-16423865D01*
X18474348Y-16423865D02*
X18464825Y-16404817D01*
X18464825Y-16404817D02*
X18464825Y-16328627D01*
X18464825Y-16328627D02*
X18474348Y-16309579D01*
X18474348Y-16309579D02*
X18493396Y-16300055D01*
X18493396Y-16300055D02*
X18531491Y-16300055D01*
X18531491Y-16300055D02*
X18550539Y-16309579D01*
X18550539Y-16309579D02*
X18560063Y-16328627D01*
X18560063Y-16328627D02*
X18560063Y-16347674D01*
X18560063Y-16347674D02*
X18464825Y-16366722D01*
X18636253Y-16423865D02*
X18655301Y-16433389D01*
X18655301Y-16433389D02*
X18693396Y-16433389D01*
X18693396Y-16433389D02*
X18712444Y-16423865D01*
X18712444Y-16423865D02*
X18721968Y-16404817D01*
X18721968Y-16404817D02*
X18721968Y-16395293D01*
X18721968Y-16395293D02*
X18712444Y-16376246D01*
X18712444Y-16376246D02*
X18693396Y-16366722D01*
X18693396Y-16366722D02*
X18664825Y-16366722D01*
X18664825Y-16366722D02*
X18645777Y-16357198D01*
X18645777Y-16357198D02*
X18636253Y-16338151D01*
X18636253Y-16338151D02*
X18636253Y-16328627D01*
X18636253Y-16328627D02*
X18645777Y-16309579D01*
X18645777Y-16309579D02*
X18664825Y-16300055D01*
X18664825Y-16300055D02*
X18693396Y-16300055D01*
X18693396Y-16300055D02*
X18712444Y-16309579D01*
X18788634Y-16509579D02*
X18798158Y-16500055D01*
X18798158Y-16500055D02*
X18817206Y-16471484D01*
X18817206Y-16471484D02*
X18826729Y-16452436D01*
X18826729Y-16452436D02*
X18836253Y-16423865D01*
X18836253Y-16423865D02*
X18845777Y-16376246D01*
X18845777Y-16376246D02*
X18845777Y-16338151D01*
X18845777Y-16338151D02*
X18836253Y-16290532D01*
X18836253Y-16290532D02*
X18826729Y-16261960D01*
X18826729Y-16261960D02*
X18817206Y-16242913D01*
X18817206Y-16242913D02*
X18798158Y-16214341D01*
X18798158Y-16214341D02*
X18788634Y-16204817D01*
D13*
X13823095Y-16605905D02*
G75*
G03*
X13823095Y-16605905I-51000J0D01*
G01*
D11*
X14188634Y-16697389D02*
X14074348Y-16697389D01*
X14131491Y-16697389D02*
X14131491Y-16497389D01*
X14131491Y-16497389D02*
X14112443Y-16525960D01*
X14112443Y-16525960D02*
X14093396Y-16545008D01*
X14093396Y-16545008D02*
X14074348Y-16554532D01*
X14274348Y-16678341D02*
X14283872Y-16687865D01*
X14283872Y-16687865D02*
X14274348Y-16697389D01*
X14274348Y-16697389D02*
X14264824Y-16687865D01*
X14264824Y-16687865D02*
X14274348Y-16678341D01*
X14274348Y-16678341D02*
X14274348Y-16697389D01*
X14407681Y-16497389D02*
X14426729Y-16497389D01*
X14426729Y-16497389D02*
X14445777Y-16506913D01*
X14445777Y-16506913D02*
X14455300Y-16516436D01*
X14455300Y-16516436D02*
X14464824Y-16535484D01*
X14464824Y-16535484D02*
X14474348Y-16573579D01*
X14474348Y-16573579D02*
X14474348Y-16621198D01*
X14474348Y-16621198D02*
X14464824Y-16659293D01*
X14464824Y-16659293D02*
X14455300Y-16678341D01*
X14455300Y-16678341D02*
X14445777Y-16687865D01*
X14445777Y-16687865D02*
X14426729Y-16697389D01*
X14426729Y-16697389D02*
X14407681Y-16697389D01*
X14407681Y-16697389D02*
X14388634Y-16687865D01*
X14388634Y-16687865D02*
X14379110Y-16678341D01*
X14379110Y-16678341D02*
X14369586Y-16659293D01*
X14369586Y-16659293D02*
X14360062Y-16621198D01*
X14360062Y-16621198D02*
X14360062Y-16573579D01*
X14360062Y-16573579D02*
X14369586Y-16535484D01*
X14369586Y-16535484D02*
X14379110Y-16516436D01*
X14379110Y-16516436D02*
X14388634Y-16506913D01*
X14388634Y-16506913D02*
X14407681Y-16497389D01*
X14550538Y-16516436D02*
X14560062Y-16506913D01*
X14560062Y-16506913D02*
X14579110Y-16497389D01*
X14579110Y-16497389D02*
X14626729Y-16497389D01*
X14626729Y-16497389D02*
X14645777Y-16506913D01*
X14645777Y-16506913D02*
X14655300Y-16516436D01*
X14655300Y-16516436D02*
X14664824Y-16535484D01*
X14664824Y-16535484D02*
X14664824Y-16554532D01*
X14664824Y-16554532D02*
X14655300Y-16583103D01*
X14655300Y-16583103D02*
X14541015Y-16697389D01*
X14541015Y-16697389D02*
X14664824Y-16697389D01*
X14788634Y-16497389D02*
X14807681Y-16497389D01*
X14807681Y-16497389D02*
X14826729Y-16506913D01*
X14826729Y-16506913D02*
X14836253Y-16516436D01*
X14836253Y-16516436D02*
X14845777Y-16535484D01*
X14845777Y-16535484D02*
X14855300Y-16573579D01*
X14855300Y-16573579D02*
X14855300Y-16621198D01*
X14855300Y-16621198D02*
X14845777Y-16659293D01*
X14845777Y-16659293D02*
X14836253Y-16678341D01*
X14836253Y-16678341D02*
X14826729Y-16687865D01*
X14826729Y-16687865D02*
X14807681Y-16697389D01*
X14807681Y-16697389D02*
X14788634Y-16697389D01*
X14788634Y-16697389D02*
X14769586Y-16687865D01*
X14769586Y-16687865D02*
X14760062Y-16678341D01*
X14760062Y-16678341D02*
X14750538Y-16659293D01*
X14750538Y-16659293D02*
X14741015Y-16621198D01*
X14741015Y-16621198D02*
X14741015Y-16573579D01*
X14741015Y-16573579D02*
X14750538Y-16535484D01*
X14750538Y-16535484D02*
X14760062Y-16516436D01*
X14760062Y-16516436D02*
X14769586Y-16506913D01*
X14769586Y-16506913D02*
X14788634Y-16497389D01*
X14941015Y-16697389D02*
X14941015Y-16564055D01*
X14941015Y-16583103D02*
X14950538Y-16573579D01*
X14950538Y-16573579D02*
X14969586Y-16564055D01*
X14969586Y-16564055D02*
X14998158Y-16564055D01*
X14998158Y-16564055D02*
X15017205Y-16573579D01*
X15017205Y-16573579D02*
X15026729Y-16592627D01*
X15026729Y-16592627D02*
X15026729Y-16697389D01*
X15026729Y-16592627D02*
X15036253Y-16573579D01*
X15036253Y-16573579D02*
X15055300Y-16564055D01*
X15055300Y-16564055D02*
X15083872Y-16564055D01*
X15083872Y-16564055D02*
X15102919Y-16573579D01*
X15102919Y-16573579D02*
X15112443Y-16592627D01*
X15112443Y-16592627D02*
X15112443Y-16697389D01*
X15207681Y-16697389D02*
X15207681Y-16564055D01*
X15207681Y-16583103D02*
X15217205Y-16573579D01*
X15217205Y-16573579D02*
X15236253Y-16564055D01*
X15236253Y-16564055D02*
X15264824Y-16564055D01*
X15264824Y-16564055D02*
X15283872Y-16573579D01*
X15283872Y-16573579D02*
X15293396Y-16592627D01*
X15293396Y-16592627D02*
X15293396Y-16697389D01*
X15293396Y-16592627D02*
X15302919Y-16573579D01*
X15302919Y-16573579D02*
X15321967Y-16564055D01*
X15321967Y-16564055D02*
X15350538Y-16564055D01*
X15350538Y-16564055D02*
X15369586Y-16573579D01*
X15369586Y-16573579D02*
X15379110Y-16592627D01*
X15379110Y-16592627D02*
X15379110Y-16697389D01*
X15769586Y-16487865D02*
X15598158Y-16745008D01*
X16026729Y-16497389D02*
X16045777Y-16497389D01*
X16045777Y-16497389D02*
X16064824Y-16506913D01*
X16064824Y-16506913D02*
X16074348Y-16516436D01*
X16074348Y-16516436D02*
X16083872Y-16535484D01*
X16083872Y-16535484D02*
X16093396Y-16573579D01*
X16093396Y-16573579D02*
X16093396Y-16621198D01*
X16093396Y-16621198D02*
X16083872Y-16659293D01*
X16083872Y-16659293D02*
X16074348Y-16678341D01*
X16074348Y-16678341D02*
X16064824Y-16687865D01*
X16064824Y-16687865D02*
X16045777Y-16697389D01*
X16045777Y-16697389D02*
X16026729Y-16697389D01*
X16026729Y-16697389D02*
X16007681Y-16687865D01*
X16007681Y-16687865D02*
X15998158Y-16678341D01*
X15998158Y-16678341D02*
X15988634Y-16659293D01*
X15988634Y-16659293D02*
X15979110Y-16621198D01*
X15979110Y-16621198D02*
X15979110Y-16573579D01*
X15979110Y-16573579D02*
X15988634Y-16535484D01*
X15988634Y-16535484D02*
X15998158Y-16516436D01*
X15998158Y-16516436D02*
X16007681Y-16506913D01*
X16007681Y-16506913D02*
X16026729Y-16497389D01*
X16179110Y-16678341D02*
X16188634Y-16687865D01*
X16188634Y-16687865D02*
X16179110Y-16697389D01*
X16179110Y-16697389D02*
X16169586Y-16687865D01*
X16169586Y-16687865D02*
X16179110Y-16678341D01*
X16179110Y-16678341D02*
X16179110Y-16697389D01*
X16312443Y-16497389D02*
X16331491Y-16497389D01*
X16331491Y-16497389D02*
X16350539Y-16506913D01*
X16350539Y-16506913D02*
X16360062Y-16516436D01*
X16360062Y-16516436D02*
X16369586Y-16535484D01*
X16369586Y-16535484D02*
X16379110Y-16573579D01*
X16379110Y-16573579D02*
X16379110Y-16621198D01*
X16379110Y-16621198D02*
X16369586Y-16659293D01*
X16369586Y-16659293D02*
X16360062Y-16678341D01*
X16360062Y-16678341D02*
X16350539Y-16687865D01*
X16350539Y-16687865D02*
X16331491Y-16697389D01*
X16331491Y-16697389D02*
X16312443Y-16697389D01*
X16312443Y-16697389D02*
X16293396Y-16687865D01*
X16293396Y-16687865D02*
X16283872Y-16678341D01*
X16283872Y-16678341D02*
X16274348Y-16659293D01*
X16274348Y-16659293D02*
X16264824Y-16621198D01*
X16264824Y-16621198D02*
X16264824Y-16573579D01*
X16264824Y-16573579D02*
X16274348Y-16535484D01*
X16274348Y-16535484D02*
X16283872Y-16516436D01*
X16283872Y-16516436D02*
X16293396Y-16506913D01*
X16293396Y-16506913D02*
X16312443Y-16497389D01*
X16550539Y-16564055D02*
X16550539Y-16697389D01*
X16502920Y-16487865D02*
X16455301Y-16630722D01*
X16455301Y-16630722D02*
X16579110Y-16630722D01*
X16693396Y-16497389D02*
X16712443Y-16497389D01*
X16712443Y-16497389D02*
X16731491Y-16506913D01*
X16731491Y-16506913D02*
X16741015Y-16516436D01*
X16741015Y-16516436D02*
X16750539Y-16535484D01*
X16750539Y-16535484D02*
X16760062Y-16573579D01*
X16760062Y-16573579D02*
X16760062Y-16621198D01*
X16760062Y-16621198D02*
X16750539Y-16659293D01*
X16750539Y-16659293D02*
X16741015Y-16678341D01*
X16741015Y-16678341D02*
X16731491Y-16687865D01*
X16731491Y-16687865D02*
X16712443Y-16697389D01*
X16712443Y-16697389D02*
X16693396Y-16697389D01*
X16693396Y-16697389D02*
X16674348Y-16687865D01*
X16674348Y-16687865D02*
X16664824Y-16678341D01*
X16664824Y-16678341D02*
X16655301Y-16659293D01*
X16655301Y-16659293D02*
X16645777Y-16621198D01*
X16645777Y-16621198D02*
X16645777Y-16573579D01*
X16645777Y-16573579D02*
X16655301Y-16535484D01*
X16655301Y-16535484D02*
X16664824Y-16516436D01*
X16664824Y-16516436D02*
X16674348Y-16506913D01*
X16674348Y-16506913D02*
X16693396Y-16497389D01*
X16836253Y-16516436D02*
X16845777Y-16506913D01*
X16845777Y-16506913D02*
X16864824Y-16497389D01*
X16864824Y-16497389D02*
X16912444Y-16497389D01*
X16912444Y-16497389D02*
X16931491Y-16506913D01*
X16931491Y-16506913D02*
X16941015Y-16516436D01*
X16941015Y-16516436D02*
X16950539Y-16535484D01*
X16950539Y-16535484D02*
X16950539Y-16554532D01*
X16950539Y-16554532D02*
X16941015Y-16583103D01*
X16941015Y-16583103D02*
X16826729Y-16697389D01*
X16826729Y-16697389D02*
X16950539Y-16697389D01*
X17026729Y-16497389D02*
X17026729Y-16535484D01*
X17102920Y-16497389D02*
X17102920Y-16535484D01*
X17398158Y-16773579D02*
X17388634Y-16764055D01*
X17388634Y-16764055D02*
X17369586Y-16735484D01*
X17369586Y-16735484D02*
X17360063Y-16716436D01*
X17360063Y-16716436D02*
X17350539Y-16687865D01*
X17350539Y-16687865D02*
X17341015Y-16640246D01*
X17341015Y-16640246D02*
X17341015Y-16602151D01*
X17341015Y-16602151D02*
X17350539Y-16554532D01*
X17350539Y-16554532D02*
X17360063Y-16525960D01*
X17360063Y-16525960D02*
X17369586Y-16506913D01*
X17369586Y-16506913D02*
X17388634Y-16478341D01*
X17388634Y-16478341D02*
X17398158Y-16468817D01*
X17464825Y-16516436D02*
X17474348Y-16506913D01*
X17474348Y-16506913D02*
X17493396Y-16497389D01*
X17493396Y-16497389D02*
X17541015Y-16497389D01*
X17541015Y-16497389D02*
X17560063Y-16506913D01*
X17560063Y-16506913D02*
X17569586Y-16516436D01*
X17569586Y-16516436D02*
X17579110Y-16535484D01*
X17579110Y-16535484D02*
X17579110Y-16554532D01*
X17579110Y-16554532D02*
X17569586Y-16583103D01*
X17569586Y-16583103D02*
X17455301Y-16697389D01*
X17455301Y-16697389D02*
X17579110Y-16697389D01*
X17817206Y-16697389D02*
X17817206Y-16497389D01*
X17902920Y-16697389D02*
X17902920Y-16592627D01*
X17902920Y-16592627D02*
X17893396Y-16573579D01*
X17893396Y-16573579D02*
X17874348Y-16564055D01*
X17874348Y-16564055D02*
X17845777Y-16564055D01*
X17845777Y-16564055D02*
X17826729Y-16573579D01*
X17826729Y-16573579D02*
X17817206Y-16583103D01*
X18026729Y-16697389D02*
X18007682Y-16687865D01*
X18007682Y-16687865D02*
X17998158Y-16678341D01*
X17998158Y-16678341D02*
X17988634Y-16659293D01*
X17988634Y-16659293D02*
X17988634Y-16602151D01*
X17988634Y-16602151D02*
X17998158Y-16583103D01*
X17998158Y-16583103D02*
X18007682Y-16573579D01*
X18007682Y-16573579D02*
X18026729Y-16564055D01*
X18026729Y-16564055D02*
X18055301Y-16564055D01*
X18055301Y-16564055D02*
X18074348Y-16573579D01*
X18074348Y-16573579D02*
X18083872Y-16583103D01*
X18083872Y-16583103D02*
X18093396Y-16602151D01*
X18093396Y-16602151D02*
X18093396Y-16659293D01*
X18093396Y-16659293D02*
X18083872Y-16678341D01*
X18083872Y-16678341D02*
X18074348Y-16687865D01*
X18074348Y-16687865D02*
X18055301Y-16697389D01*
X18055301Y-16697389D02*
X18026729Y-16697389D01*
X18207682Y-16697389D02*
X18188634Y-16687865D01*
X18188634Y-16687865D02*
X18179110Y-16668817D01*
X18179110Y-16668817D02*
X18179110Y-16497389D01*
X18360063Y-16687865D02*
X18341015Y-16697389D01*
X18341015Y-16697389D02*
X18302920Y-16697389D01*
X18302920Y-16697389D02*
X18283872Y-16687865D01*
X18283872Y-16687865D02*
X18274348Y-16668817D01*
X18274348Y-16668817D02*
X18274348Y-16592627D01*
X18274348Y-16592627D02*
X18283872Y-16573579D01*
X18283872Y-16573579D02*
X18302920Y-16564055D01*
X18302920Y-16564055D02*
X18341015Y-16564055D01*
X18341015Y-16564055D02*
X18360063Y-16573579D01*
X18360063Y-16573579D02*
X18369587Y-16592627D01*
X18369587Y-16592627D02*
X18369587Y-16611674D01*
X18369587Y-16611674D02*
X18274348Y-16630722D01*
X18445777Y-16687865D02*
X18464825Y-16697389D01*
X18464825Y-16697389D02*
X18502920Y-16697389D01*
X18502920Y-16697389D02*
X18521968Y-16687865D01*
X18521968Y-16687865D02*
X18531491Y-16668817D01*
X18531491Y-16668817D02*
X18531491Y-16659293D01*
X18531491Y-16659293D02*
X18521968Y-16640246D01*
X18521968Y-16640246D02*
X18502920Y-16630722D01*
X18502920Y-16630722D02*
X18474348Y-16630722D01*
X18474348Y-16630722D02*
X18455301Y-16621198D01*
X18455301Y-16621198D02*
X18445777Y-16602151D01*
X18445777Y-16602151D02*
X18445777Y-16592627D01*
X18445777Y-16592627D02*
X18455301Y-16573579D01*
X18455301Y-16573579D02*
X18474348Y-16564055D01*
X18474348Y-16564055D02*
X18502920Y-16564055D01*
X18502920Y-16564055D02*
X18521968Y-16573579D01*
X18598158Y-16773579D02*
X18607682Y-16764055D01*
X18607682Y-16764055D02*
X18626729Y-16735484D01*
X18626729Y-16735484D02*
X18636253Y-16716436D01*
X18636253Y-16716436D02*
X18645777Y-16687865D01*
X18645777Y-16687865D02*
X18655301Y-16640246D01*
X18655301Y-16640246D02*
X18655301Y-16602151D01*
X18655301Y-16602151D02*
X18645777Y-16554532D01*
X18645777Y-16554532D02*
X18636253Y-16525960D01*
X18636253Y-16525960D02*
X18626729Y-16506913D01*
X18626729Y-16506913D02*
X18607682Y-16478341D01*
X18607682Y-16478341D02*
X18598158Y-16468817D01*
X13723095Y-16769905D02*
X13723095Y-16969905D01*
X13623095Y-16869905D02*
X13823095Y-16869905D01*
X14064824Y-16761389D02*
X14188634Y-16761389D01*
X14188634Y-16761389D02*
X14121967Y-16837579D01*
X14121967Y-16837579D02*
X14150538Y-16837579D01*
X14150538Y-16837579D02*
X14169586Y-16847103D01*
X14169586Y-16847103D02*
X14179110Y-16856627D01*
X14179110Y-16856627D02*
X14188634Y-16875675D01*
X14188634Y-16875675D02*
X14188634Y-16923294D01*
X14188634Y-16923294D02*
X14179110Y-16942341D01*
X14179110Y-16942341D02*
X14169586Y-16951865D01*
X14169586Y-16951865D02*
X14150538Y-16961389D01*
X14150538Y-16961389D02*
X14093396Y-16961389D01*
X14093396Y-16961389D02*
X14074348Y-16951865D01*
X14074348Y-16951865D02*
X14064824Y-16942341D01*
X14274348Y-16942341D02*
X14283872Y-16951865D01*
X14283872Y-16951865D02*
X14274348Y-16961389D01*
X14274348Y-16961389D02*
X14264824Y-16951865D01*
X14264824Y-16951865D02*
X14274348Y-16942341D01*
X14274348Y-16942341D02*
X14274348Y-16961389D01*
X14360062Y-16780436D02*
X14369586Y-16770913D01*
X14369586Y-16770913D02*
X14388634Y-16761389D01*
X14388634Y-16761389D02*
X14436253Y-16761389D01*
X14436253Y-16761389D02*
X14455300Y-16770913D01*
X14455300Y-16770913D02*
X14464824Y-16780436D01*
X14464824Y-16780436D02*
X14474348Y-16799484D01*
X14474348Y-16799484D02*
X14474348Y-16818532D01*
X14474348Y-16818532D02*
X14464824Y-16847103D01*
X14464824Y-16847103D02*
X14350538Y-16961389D01*
X14350538Y-16961389D02*
X14474348Y-16961389D01*
X14598157Y-16761389D02*
X14617205Y-16761389D01*
X14617205Y-16761389D02*
X14636253Y-16770913D01*
X14636253Y-16770913D02*
X14645777Y-16780436D01*
X14645777Y-16780436D02*
X14655300Y-16799484D01*
X14655300Y-16799484D02*
X14664824Y-16837579D01*
X14664824Y-16837579D02*
X14664824Y-16885198D01*
X14664824Y-16885198D02*
X14655300Y-16923294D01*
X14655300Y-16923294D02*
X14645777Y-16942341D01*
X14645777Y-16942341D02*
X14636253Y-16951865D01*
X14636253Y-16951865D02*
X14617205Y-16961389D01*
X14617205Y-16961389D02*
X14598157Y-16961389D01*
X14598157Y-16961389D02*
X14579110Y-16951865D01*
X14579110Y-16951865D02*
X14569586Y-16942341D01*
X14569586Y-16942341D02*
X14560062Y-16923294D01*
X14560062Y-16923294D02*
X14550538Y-16885198D01*
X14550538Y-16885198D02*
X14550538Y-16837579D01*
X14550538Y-16837579D02*
X14560062Y-16799484D01*
X14560062Y-16799484D02*
X14569586Y-16780436D01*
X14569586Y-16780436D02*
X14579110Y-16770913D01*
X14579110Y-16770913D02*
X14598157Y-16761389D01*
X14788634Y-16761389D02*
X14807681Y-16761389D01*
X14807681Y-16761389D02*
X14826729Y-16770913D01*
X14826729Y-16770913D02*
X14836253Y-16780436D01*
X14836253Y-16780436D02*
X14845777Y-16799484D01*
X14845777Y-16799484D02*
X14855300Y-16837579D01*
X14855300Y-16837579D02*
X14855300Y-16885198D01*
X14855300Y-16885198D02*
X14845777Y-16923294D01*
X14845777Y-16923294D02*
X14836253Y-16942341D01*
X14836253Y-16942341D02*
X14826729Y-16951865D01*
X14826729Y-16951865D02*
X14807681Y-16961389D01*
X14807681Y-16961389D02*
X14788634Y-16961389D01*
X14788634Y-16961389D02*
X14769586Y-16951865D01*
X14769586Y-16951865D02*
X14760062Y-16942341D01*
X14760062Y-16942341D02*
X14750538Y-16923294D01*
X14750538Y-16923294D02*
X14741015Y-16885198D01*
X14741015Y-16885198D02*
X14741015Y-16837579D01*
X14741015Y-16837579D02*
X14750538Y-16799484D01*
X14750538Y-16799484D02*
X14760062Y-16780436D01*
X14760062Y-16780436D02*
X14769586Y-16770913D01*
X14769586Y-16770913D02*
X14788634Y-16761389D01*
X14941015Y-16961389D02*
X14941015Y-16828055D01*
X14941015Y-16847103D02*
X14950538Y-16837579D01*
X14950538Y-16837579D02*
X14969586Y-16828055D01*
X14969586Y-16828055D02*
X14998158Y-16828055D01*
X14998158Y-16828055D02*
X15017205Y-16837579D01*
X15017205Y-16837579D02*
X15026729Y-16856627D01*
X15026729Y-16856627D02*
X15026729Y-16961389D01*
X15026729Y-16856627D02*
X15036253Y-16837579D01*
X15036253Y-16837579D02*
X15055300Y-16828055D01*
X15055300Y-16828055D02*
X15083872Y-16828055D01*
X15083872Y-16828055D02*
X15102919Y-16837579D01*
X15102919Y-16837579D02*
X15112443Y-16856627D01*
X15112443Y-16856627D02*
X15112443Y-16961389D01*
X15207681Y-16961389D02*
X15207681Y-16828055D01*
X15207681Y-16847103D02*
X15217205Y-16837579D01*
X15217205Y-16837579D02*
X15236253Y-16828055D01*
X15236253Y-16828055D02*
X15264824Y-16828055D01*
X15264824Y-16828055D02*
X15283872Y-16837579D01*
X15283872Y-16837579D02*
X15293396Y-16856627D01*
X15293396Y-16856627D02*
X15293396Y-16961389D01*
X15293396Y-16856627D02*
X15302919Y-16837579D01*
X15302919Y-16837579D02*
X15321967Y-16828055D01*
X15321967Y-16828055D02*
X15350538Y-16828055D01*
X15350538Y-16828055D02*
X15369586Y-16837579D01*
X15369586Y-16837579D02*
X15379110Y-16856627D01*
X15379110Y-16856627D02*
X15379110Y-16961389D01*
X15769586Y-16751865D02*
X15598158Y-17009008D01*
X16026729Y-16761389D02*
X16045777Y-16761389D01*
X16045777Y-16761389D02*
X16064824Y-16770913D01*
X16064824Y-16770913D02*
X16074348Y-16780436D01*
X16074348Y-16780436D02*
X16083872Y-16799484D01*
X16083872Y-16799484D02*
X16093396Y-16837579D01*
X16093396Y-16837579D02*
X16093396Y-16885198D01*
X16093396Y-16885198D02*
X16083872Y-16923294D01*
X16083872Y-16923294D02*
X16074348Y-16942341D01*
X16074348Y-16942341D02*
X16064824Y-16951865D01*
X16064824Y-16951865D02*
X16045777Y-16961389D01*
X16045777Y-16961389D02*
X16026729Y-16961389D01*
X16026729Y-16961389D02*
X16007681Y-16951865D01*
X16007681Y-16951865D02*
X15998158Y-16942341D01*
X15998158Y-16942341D02*
X15988634Y-16923294D01*
X15988634Y-16923294D02*
X15979110Y-16885198D01*
X15979110Y-16885198D02*
X15979110Y-16837579D01*
X15979110Y-16837579D02*
X15988634Y-16799484D01*
X15988634Y-16799484D02*
X15998158Y-16780436D01*
X15998158Y-16780436D02*
X16007681Y-16770913D01*
X16007681Y-16770913D02*
X16026729Y-16761389D01*
X16179110Y-16942341D02*
X16188634Y-16951865D01*
X16188634Y-16951865D02*
X16179110Y-16961389D01*
X16179110Y-16961389D02*
X16169586Y-16951865D01*
X16169586Y-16951865D02*
X16179110Y-16942341D01*
X16179110Y-16942341D02*
X16179110Y-16961389D01*
X16379110Y-16961389D02*
X16264824Y-16961389D01*
X16321967Y-16961389D02*
X16321967Y-16761389D01*
X16321967Y-16761389D02*
X16302920Y-16789960D01*
X16302920Y-16789960D02*
X16283872Y-16809008D01*
X16283872Y-16809008D02*
X16264824Y-16818532D01*
X16455301Y-16780436D02*
X16464824Y-16770913D01*
X16464824Y-16770913D02*
X16483872Y-16761389D01*
X16483872Y-16761389D02*
X16531491Y-16761389D01*
X16531491Y-16761389D02*
X16550539Y-16770913D01*
X16550539Y-16770913D02*
X16560062Y-16780436D01*
X16560062Y-16780436D02*
X16569586Y-16799484D01*
X16569586Y-16799484D02*
X16569586Y-16818532D01*
X16569586Y-16818532D02*
X16560062Y-16847103D01*
X16560062Y-16847103D02*
X16445777Y-16961389D01*
X16445777Y-16961389D02*
X16569586Y-16961389D01*
X16741015Y-16761389D02*
X16702920Y-16761389D01*
X16702920Y-16761389D02*
X16683872Y-16770913D01*
X16683872Y-16770913D02*
X16674348Y-16780436D01*
X16674348Y-16780436D02*
X16655301Y-16809008D01*
X16655301Y-16809008D02*
X16645777Y-16847103D01*
X16645777Y-16847103D02*
X16645777Y-16923294D01*
X16645777Y-16923294D02*
X16655301Y-16942341D01*
X16655301Y-16942341D02*
X16664824Y-16951865D01*
X16664824Y-16951865D02*
X16683872Y-16961389D01*
X16683872Y-16961389D02*
X16721967Y-16961389D01*
X16721967Y-16961389D02*
X16741015Y-16951865D01*
X16741015Y-16951865D02*
X16750539Y-16942341D01*
X16750539Y-16942341D02*
X16760062Y-16923294D01*
X16760062Y-16923294D02*
X16760062Y-16875675D01*
X16760062Y-16875675D02*
X16750539Y-16856627D01*
X16750539Y-16856627D02*
X16741015Y-16847103D01*
X16741015Y-16847103D02*
X16721967Y-16837579D01*
X16721967Y-16837579D02*
X16683872Y-16837579D01*
X16683872Y-16837579D02*
X16664824Y-16847103D01*
X16664824Y-16847103D02*
X16655301Y-16856627D01*
X16655301Y-16856627D02*
X16645777Y-16875675D01*
X16883872Y-16761389D02*
X16902920Y-16761389D01*
X16902920Y-16761389D02*
X16921967Y-16770913D01*
X16921967Y-16770913D02*
X16931491Y-16780436D01*
X16931491Y-16780436D02*
X16941015Y-16799484D01*
X16941015Y-16799484D02*
X16950539Y-16837579D01*
X16950539Y-16837579D02*
X16950539Y-16885198D01*
X16950539Y-16885198D02*
X16941015Y-16923294D01*
X16941015Y-16923294D02*
X16931491Y-16942341D01*
X16931491Y-16942341D02*
X16921967Y-16951865D01*
X16921967Y-16951865D02*
X16902920Y-16961389D01*
X16902920Y-16961389D02*
X16883872Y-16961389D01*
X16883872Y-16961389D02*
X16864824Y-16951865D01*
X16864824Y-16951865D02*
X16855301Y-16942341D01*
X16855301Y-16942341D02*
X16845777Y-16923294D01*
X16845777Y-16923294D02*
X16836253Y-16885198D01*
X16836253Y-16885198D02*
X16836253Y-16837579D01*
X16836253Y-16837579D02*
X16845777Y-16799484D01*
X16845777Y-16799484D02*
X16855301Y-16780436D01*
X16855301Y-16780436D02*
X16864824Y-16770913D01*
X16864824Y-16770913D02*
X16883872Y-16761389D01*
X17026729Y-16761389D02*
X17026729Y-16799484D01*
X17102920Y-16761389D02*
X17102920Y-16799484D01*
X17398158Y-17037579D02*
X17388634Y-17028055D01*
X17388634Y-17028055D02*
X17369586Y-16999484D01*
X17369586Y-16999484D02*
X17360063Y-16980436D01*
X17360063Y-16980436D02*
X17350539Y-16951865D01*
X17350539Y-16951865D02*
X17341015Y-16904246D01*
X17341015Y-16904246D02*
X17341015Y-16866151D01*
X17341015Y-16866151D02*
X17350539Y-16818532D01*
X17350539Y-16818532D02*
X17360063Y-16789960D01*
X17360063Y-16789960D02*
X17369586Y-16770913D01*
X17369586Y-16770913D02*
X17388634Y-16742341D01*
X17388634Y-16742341D02*
X17398158Y-16732817D01*
X17464825Y-16780436D02*
X17474348Y-16770913D01*
X17474348Y-16770913D02*
X17493396Y-16761389D01*
X17493396Y-16761389D02*
X17541015Y-16761389D01*
X17541015Y-16761389D02*
X17560063Y-16770913D01*
X17560063Y-16770913D02*
X17569586Y-16780436D01*
X17569586Y-16780436D02*
X17579110Y-16799484D01*
X17579110Y-16799484D02*
X17579110Y-16818532D01*
X17579110Y-16818532D02*
X17569586Y-16847103D01*
X17569586Y-16847103D02*
X17455301Y-16961389D01*
X17455301Y-16961389D02*
X17579110Y-16961389D01*
X17817206Y-16961389D02*
X17817206Y-16761389D01*
X17902920Y-16961389D02*
X17902920Y-16856627D01*
X17902920Y-16856627D02*
X17893396Y-16837579D01*
X17893396Y-16837579D02*
X17874348Y-16828055D01*
X17874348Y-16828055D02*
X17845777Y-16828055D01*
X17845777Y-16828055D02*
X17826729Y-16837579D01*
X17826729Y-16837579D02*
X17817206Y-16847103D01*
X18026729Y-16961389D02*
X18007682Y-16951865D01*
X18007682Y-16951865D02*
X17998158Y-16942341D01*
X17998158Y-16942341D02*
X17988634Y-16923294D01*
X17988634Y-16923294D02*
X17988634Y-16866151D01*
X17988634Y-16866151D02*
X17998158Y-16847103D01*
X17998158Y-16847103D02*
X18007682Y-16837579D01*
X18007682Y-16837579D02*
X18026729Y-16828055D01*
X18026729Y-16828055D02*
X18055301Y-16828055D01*
X18055301Y-16828055D02*
X18074348Y-16837579D01*
X18074348Y-16837579D02*
X18083872Y-16847103D01*
X18083872Y-16847103D02*
X18093396Y-16866151D01*
X18093396Y-16866151D02*
X18093396Y-16923294D01*
X18093396Y-16923294D02*
X18083872Y-16942341D01*
X18083872Y-16942341D02*
X18074348Y-16951865D01*
X18074348Y-16951865D02*
X18055301Y-16961389D01*
X18055301Y-16961389D02*
X18026729Y-16961389D01*
X18207682Y-16961389D02*
X18188634Y-16951865D01*
X18188634Y-16951865D02*
X18179110Y-16932817D01*
X18179110Y-16932817D02*
X18179110Y-16761389D01*
X18360063Y-16951865D02*
X18341015Y-16961389D01*
X18341015Y-16961389D02*
X18302920Y-16961389D01*
X18302920Y-16961389D02*
X18283872Y-16951865D01*
X18283872Y-16951865D02*
X18274348Y-16932817D01*
X18274348Y-16932817D02*
X18274348Y-16856627D01*
X18274348Y-16856627D02*
X18283872Y-16837579D01*
X18283872Y-16837579D02*
X18302920Y-16828055D01*
X18302920Y-16828055D02*
X18341015Y-16828055D01*
X18341015Y-16828055D02*
X18360063Y-16837579D01*
X18360063Y-16837579D02*
X18369587Y-16856627D01*
X18369587Y-16856627D02*
X18369587Y-16875675D01*
X18369587Y-16875675D02*
X18274348Y-16894722D01*
X18445777Y-16951865D02*
X18464825Y-16961389D01*
X18464825Y-16961389D02*
X18502920Y-16961389D01*
X18502920Y-16961389D02*
X18521968Y-16951865D01*
X18521968Y-16951865D02*
X18531491Y-16932817D01*
X18531491Y-16932817D02*
X18531491Y-16923294D01*
X18531491Y-16923294D02*
X18521968Y-16904246D01*
X18521968Y-16904246D02*
X18502920Y-16894722D01*
X18502920Y-16894722D02*
X18474348Y-16894722D01*
X18474348Y-16894722D02*
X18455301Y-16885198D01*
X18455301Y-16885198D02*
X18445777Y-16866151D01*
X18445777Y-16866151D02*
X18445777Y-16856627D01*
X18445777Y-16856627D02*
X18455301Y-16837579D01*
X18455301Y-16837579D02*
X18474348Y-16828055D01*
X18474348Y-16828055D02*
X18502920Y-16828055D01*
X18502920Y-16828055D02*
X18521968Y-16837579D01*
X18598158Y-17037579D02*
X18607682Y-17028055D01*
X18607682Y-17028055D02*
X18626729Y-16999484D01*
X18626729Y-16999484D02*
X18636253Y-16980436D01*
X18636253Y-16980436D02*
X18645777Y-16951865D01*
X18645777Y-16951865D02*
X18655301Y-16904246D01*
X18655301Y-16904246D02*
X18655301Y-16866151D01*
X18655301Y-16866151D02*
X18645777Y-16818532D01*
X18645777Y-16818532D02*
X18636253Y-16789960D01*
X18636253Y-16789960D02*
X18626729Y-16770913D01*
X18626729Y-16770913D02*
X18607682Y-16742341D01*
X18607682Y-16742341D02*
X18598158Y-16732817D01*
M02*
