M48
; DRILL file {KiCad 7.0.7} date Fri Feb  9 14:16:49 2024
; FORMAT={-:-/ absolute / metric / decimal}
; #@! TF.CreationDate,2024-02-09T14:16:49-05:00
; #@! TF.GenerationSoftware,Kicad,Pcbnew,7.0.7
; #@! TF.FileFunction,Plated,1,2,PTH
FMAT,2
METRIC
; #@! TA.AperFunction,Plated,PTH,ViaDrill
T1C0.300
; #@! TA.AperFunction,Plated,PTH,ComponentDrill
T2C1.020
; #@! TA.AperFunction,Plated,PTH,ComponentDrill
T3C3.200
%
G90
G05
T1
X140.05Y-119.4
X140.05Y-120.2
X140.2Y-101.4
X140.3Y-106.9
X141.95Y-115.4
X143.6Y-109.175
X144.3Y-100.3
X145.9Y-109.2
X146.0Y-100.3
X146.5Y-104.25
X146.8Y-121.0
X147.6Y-121.0
X147.6Y-121.7
X148.4Y-121.0
X148.4Y-121.7
X150.75Y-106.0
X153.4Y-101.6
X153.4Y-102.9
X153.4Y-104.4
X154.4Y-100.6
X154.4Y-105.3
X155.8Y-100.6
X155.8Y-105.3
X157.0Y-110.5
X157.2Y-100.6
X157.2Y-105.3
X158.1Y-101.6
X158.1Y-102.9
X158.1Y-104.4
X158.5Y-108.0
X159.25Y-111.5
X159.25Y-115.0
X160.25Y-111.5
X160.25Y-115.0
X162.0Y-115.1
T2
X145.25Y-145.5
X157.95Y-145.5
T3
X142.75Y-91.0
X163.25Y-152.5
T0
M30
