%TF.GenerationSoftware,KiCad,Pcbnew,7.0.7*%
%TF.CreationDate,2024-02-09T14:16:11-05:00*%
%TF.ProjectId,key-fob-pcb,6b65792d-666f-4622-9d70-63622e6b6963,rev?*%
%TF.SameCoordinates,Original*%
%TF.FileFunction,Legend,Top*%
%TF.FilePolarity,Positive*%
%FSLAX46Y46*%
G04 Gerber Fmt 4.6, Leading zero omitted, Abs format (unit mm)*
G04 Created by KiCad (PCBNEW 7.0.7) date 2024-02-09 14:16:11*
%MOMM*%
%LPD*%
G01*
G04 APERTURE LIST*
G04 Aperture macros list*
%AMRoundRect*
0 Rectangle with rounded corners*
0 $1 Rounding radius*
0 $2 $3 $4 $5 $6 $7 $8 $9 X,Y pos of 4 corners*
0 Add a 4 corners polygon primitive as box body*
4,1,4,$2,$3,$4,$5,$6,$7,$8,$9,$2,$3,0*
0 Add four circle primitives for the rounded corners*
1,1,$1+$1,$2,$3*
1,1,$1+$1,$4,$5*
1,1,$1+$1,$6,$7*
1,1,$1+$1,$8,$9*
0 Add four rect primitives between the rounded corners*
20,1,$1+$1,$2,$3,$4,$5,0*
20,1,$1+$1,$4,$5,$6,$7,0*
20,1,$1+$1,$6,$7,$8,$9,0*
20,1,$1+$1,$8,$9,$2,$3,0*%
G04 Aperture macros list end*
%ADD10C,0.150000*%
%ADD11C,0.200000*%
%ADD12C,0.120000*%
%ADD13C,0.152400*%
%ADD14C,0.127000*%
%ADD15RoundRect,0.102000X-1.590000X0.635000X-1.590000X-0.635000X1.590000X-0.635000X1.590000X0.635000X0*%
%ADD16RoundRect,0.225000X-0.250000X0.225000X-0.250000X-0.225000X0.250000X-0.225000X0.250000X0.225000X0*%
%ADD17RoundRect,0.225000X0.250000X-0.225000X0.250000X0.225000X-0.250000X0.225000X-0.250000X-0.225000X0*%
%ADD18RoundRect,0.225000X0.225000X0.250000X-0.225000X0.250000X-0.225000X-0.250000X0.225000X-0.250000X0*%
%ADD19C,1.734000*%
%ADD20C,3.600000*%
%ADD21C,6.400000*%
%ADD22R,0.900000X0.900000*%
%ADD23R,1.500000X0.900000*%
%ADD24R,0.900000X1.500000*%
%ADD25RoundRect,0.102000X0.700000X-0.500000X0.700000X0.500000X-0.700000X0.500000X-0.700000X-0.500000X0*%
%ADD26R,0.670001X0.299999*%
%ADD27R,1.400000X1.600000*%
%ADD28R,1.600000X1.400000*%
%ADD29RoundRect,0.200000X-0.275000X0.200000X-0.275000X-0.200000X0.275000X-0.200000X0.275000X0.200000X0*%
%ADD30RoundRect,0.200000X0.275000X-0.200000X0.275000X0.200000X-0.275000X0.200000X-0.275000X-0.200000X0*%
%ADD31RoundRect,0.200000X0.200000X0.275000X-0.200000X0.275000X-0.200000X-0.275000X0.200000X-0.275000X0*%
%ADD32RoundRect,0.190500X-0.561500X-0.206500X0.561500X-0.206500X0.561500X0.206500X-0.561500X0.206500X0*%
%ADD33R,1.447800X4.191000*%
%ADD34RoundRect,0.218750X0.256250X-0.218750X0.256250X0.218750X-0.256250X0.218750X-0.256250X-0.218750X0*%
G04 APERTURE END LIST*
D10*
X150916666Y-142474819D02*
X150916666Y-143189104D01*
X150916666Y-143189104D02*
X150869047Y-143331961D01*
X150869047Y-143331961D02*
X150773809Y-143427200D01*
X150773809Y-143427200D02*
X150630952Y-143474819D01*
X150630952Y-143474819D02*
X150535714Y-143474819D01*
X151916666Y-143474819D02*
X151345238Y-143474819D01*
X151630952Y-143474819D02*
X151630952Y-142474819D01*
X151630952Y-142474819D02*
X151535714Y-142617676D01*
X151535714Y-142617676D02*
X151440476Y-142712914D01*
X151440476Y-142712914D02*
X151345238Y-142760533D01*
X148809580Y-117066666D02*
X148857200Y-117114285D01*
X148857200Y-117114285D02*
X148904819Y-117257142D01*
X148904819Y-117257142D02*
X148904819Y-117352380D01*
X148904819Y-117352380D02*
X148857200Y-117495237D01*
X148857200Y-117495237D02*
X148761961Y-117590475D01*
X148761961Y-117590475D02*
X148666723Y-117638094D01*
X148666723Y-117638094D02*
X148476247Y-117685713D01*
X148476247Y-117685713D02*
X148333390Y-117685713D01*
X148333390Y-117685713D02*
X148142914Y-117638094D01*
X148142914Y-117638094D02*
X148047676Y-117590475D01*
X148047676Y-117590475D02*
X147952438Y-117495237D01*
X147952438Y-117495237D02*
X147904819Y-117352380D01*
X147904819Y-117352380D02*
X147904819Y-117257142D01*
X147904819Y-117257142D02*
X147952438Y-117114285D01*
X147952438Y-117114285D02*
X148000057Y-117066666D01*
X147904819Y-116733332D02*
X147904819Y-116114285D01*
X147904819Y-116114285D02*
X148285771Y-116447618D01*
X148285771Y-116447618D02*
X148285771Y-116304761D01*
X148285771Y-116304761D02*
X148333390Y-116209523D01*
X148333390Y-116209523D02*
X148381009Y-116161904D01*
X148381009Y-116161904D02*
X148476247Y-116114285D01*
X148476247Y-116114285D02*
X148714342Y-116114285D01*
X148714342Y-116114285D02*
X148809580Y-116161904D01*
X148809580Y-116161904D02*
X148857200Y-116209523D01*
X148857200Y-116209523D02*
X148904819Y-116304761D01*
X148904819Y-116304761D02*
X148904819Y-116590475D01*
X148904819Y-116590475D02*
X148857200Y-116685713D01*
X148857200Y-116685713D02*
X148809580Y-116733332D01*
X142454819Y-114266666D02*
X141978628Y-114599999D01*
X142454819Y-114838094D02*
X141454819Y-114838094D01*
X141454819Y-114838094D02*
X141454819Y-114457142D01*
X141454819Y-114457142D02*
X141502438Y-114361904D01*
X141502438Y-114361904D02*
X141550057Y-114314285D01*
X141550057Y-114314285D02*
X141645295Y-114266666D01*
X141645295Y-114266666D02*
X141788152Y-114266666D01*
X141788152Y-114266666D02*
X141883390Y-114314285D01*
X141883390Y-114314285D02*
X141931009Y-114361904D01*
X141931009Y-114361904D02*
X141978628Y-114457142D01*
X141978628Y-114457142D02*
X141978628Y-114838094D01*
X141788152Y-113409523D02*
X142454819Y-113409523D01*
X141407200Y-113647618D02*
X142121485Y-113885713D01*
X142121485Y-113885713D02*
X142121485Y-113266666D01*
X144204819Y-114266666D02*
X143728628Y-114599999D01*
X144204819Y-114838094D02*
X143204819Y-114838094D01*
X143204819Y-114838094D02*
X143204819Y-114457142D01*
X143204819Y-114457142D02*
X143252438Y-114361904D01*
X143252438Y-114361904D02*
X143300057Y-114314285D01*
X143300057Y-114314285D02*
X143395295Y-114266666D01*
X143395295Y-114266666D02*
X143538152Y-114266666D01*
X143538152Y-114266666D02*
X143633390Y-114314285D01*
X143633390Y-114314285D02*
X143681009Y-114361904D01*
X143681009Y-114361904D02*
X143728628Y-114457142D01*
X143728628Y-114457142D02*
X143728628Y-114838094D01*
X143204819Y-113933332D02*
X143204819Y-113314285D01*
X143204819Y-113314285D02*
X143585771Y-113647618D01*
X143585771Y-113647618D02*
X143585771Y-113504761D01*
X143585771Y-113504761D02*
X143633390Y-113409523D01*
X143633390Y-113409523D02*
X143681009Y-113361904D01*
X143681009Y-113361904D02*
X143776247Y-113314285D01*
X143776247Y-113314285D02*
X144014342Y-113314285D01*
X144014342Y-113314285D02*
X144109580Y-113361904D01*
X144109580Y-113361904D02*
X144157200Y-113409523D01*
X144157200Y-113409523D02*
X144204819Y-113504761D01*
X144204819Y-113504761D02*
X144204819Y-113790475D01*
X144204819Y-113790475D02*
X144157200Y-113885713D01*
X144157200Y-113885713D02*
X144109580Y-113933332D01*
X147109580Y-117066666D02*
X147157200Y-117114285D01*
X147157200Y-117114285D02*
X147204819Y-117257142D01*
X147204819Y-117257142D02*
X147204819Y-117352380D01*
X147204819Y-117352380D02*
X147157200Y-117495237D01*
X147157200Y-117495237D02*
X147061961Y-117590475D01*
X147061961Y-117590475D02*
X146966723Y-117638094D01*
X146966723Y-117638094D02*
X146776247Y-117685713D01*
X146776247Y-117685713D02*
X146633390Y-117685713D01*
X146633390Y-117685713D02*
X146442914Y-117638094D01*
X146442914Y-117638094D02*
X146347676Y-117590475D01*
X146347676Y-117590475D02*
X146252438Y-117495237D01*
X146252438Y-117495237D02*
X146204819Y-117352380D01*
X146204819Y-117352380D02*
X146204819Y-117257142D01*
X146204819Y-117257142D02*
X146252438Y-117114285D01*
X146252438Y-117114285D02*
X146300057Y-117066666D01*
X146300057Y-116685713D02*
X146252438Y-116638094D01*
X146252438Y-116638094D02*
X146204819Y-116542856D01*
X146204819Y-116542856D02*
X146204819Y-116304761D01*
X146204819Y-116304761D02*
X146252438Y-116209523D01*
X146252438Y-116209523D02*
X146300057Y-116161904D01*
X146300057Y-116161904D02*
X146395295Y-116114285D01*
X146395295Y-116114285D02*
X146490533Y-116114285D01*
X146490533Y-116114285D02*
X146633390Y-116161904D01*
X146633390Y-116161904D02*
X147204819Y-116733332D01*
X147204819Y-116733332D02*
X147204819Y-116114285D01*
X140333333Y-118859580D02*
X140285714Y-118907200D01*
X140285714Y-118907200D02*
X140142857Y-118954819D01*
X140142857Y-118954819D02*
X140047619Y-118954819D01*
X140047619Y-118954819D02*
X139904762Y-118907200D01*
X139904762Y-118907200D02*
X139809524Y-118811961D01*
X139809524Y-118811961D02*
X139761905Y-118716723D01*
X139761905Y-118716723D02*
X139714286Y-118526247D01*
X139714286Y-118526247D02*
X139714286Y-118383390D01*
X139714286Y-118383390D02*
X139761905Y-118192914D01*
X139761905Y-118192914D02*
X139809524Y-118097676D01*
X139809524Y-118097676D02*
X139904762Y-118002438D01*
X139904762Y-118002438D02*
X140047619Y-117954819D01*
X140047619Y-117954819D02*
X140142857Y-117954819D01*
X140142857Y-117954819D02*
X140285714Y-118002438D01*
X140285714Y-118002438D02*
X140333333Y-118050057D01*
X141285714Y-118954819D02*
X140714286Y-118954819D01*
X141000000Y-118954819D02*
X141000000Y-117954819D01*
X141000000Y-117954819D02*
X140904762Y-118097676D01*
X140904762Y-118097676D02*
X140809524Y-118192914D01*
X140809524Y-118192914D02*
X140714286Y-118240533D01*
X150916666Y-136204819D02*
X150916666Y-136919104D01*
X150916666Y-136919104D02*
X150869047Y-137061961D01*
X150869047Y-137061961D02*
X150773809Y-137157200D01*
X150773809Y-137157200D02*
X150630952Y-137204819D01*
X150630952Y-137204819D02*
X150535714Y-137204819D01*
X151345238Y-136300057D02*
X151392857Y-136252438D01*
X151392857Y-136252438D02*
X151488095Y-136204819D01*
X151488095Y-136204819D02*
X151726190Y-136204819D01*
X151726190Y-136204819D02*
X151821428Y-136252438D01*
X151821428Y-136252438D02*
X151869047Y-136300057D01*
X151869047Y-136300057D02*
X151916666Y-136395295D01*
X151916666Y-136395295D02*
X151916666Y-136490533D01*
X151916666Y-136490533D02*
X151869047Y-136633390D01*
X151869047Y-136633390D02*
X151297619Y-137204819D01*
X151297619Y-137204819D02*
X151916666Y-137204819D01*
X165238095Y-114454819D02*
X165238095Y-115264342D01*
X165238095Y-115264342D02*
X165285714Y-115359580D01*
X165285714Y-115359580D02*
X165333333Y-115407200D01*
X165333333Y-115407200D02*
X165428571Y-115454819D01*
X165428571Y-115454819D02*
X165619047Y-115454819D01*
X165619047Y-115454819D02*
X165714285Y-115407200D01*
X165714285Y-115407200D02*
X165761904Y-115359580D01*
X165761904Y-115359580D02*
X165809523Y-115264342D01*
X165809523Y-115264342D02*
X165809523Y-114454819D01*
X166714285Y-114788152D02*
X166714285Y-115454819D01*
X166476190Y-114407200D02*
X166238095Y-115121485D01*
X166238095Y-115121485D02*
X166857142Y-115121485D01*
X152488094Y-90919104D02*
X152964284Y-90919104D01*
X152392856Y-91204819D02*
X152726189Y-90204819D01*
X152726189Y-90204819D02*
X153059522Y-91204819D01*
X153392856Y-90538152D02*
X153392856Y-91204819D01*
X153392856Y-90633390D02*
X153440475Y-90585771D01*
X153440475Y-90585771D02*
X153535713Y-90538152D01*
X153535713Y-90538152D02*
X153678570Y-90538152D01*
X153678570Y-90538152D02*
X153773808Y-90585771D01*
X153773808Y-90585771D02*
X153821427Y-90681009D01*
X153821427Y-90681009D02*
X153821427Y-91204819D01*
X154154761Y-90538152D02*
X154535713Y-90538152D01*
X154297618Y-90204819D02*
X154297618Y-91061961D01*
X154297618Y-91061961D02*
X154345237Y-91157200D01*
X154345237Y-91157200D02*
X154440475Y-91204819D01*
X154440475Y-91204819D02*
X154535713Y-91204819D01*
X155249999Y-91157200D02*
X155154761Y-91204819D01*
X155154761Y-91204819D02*
X154964285Y-91204819D01*
X154964285Y-91204819D02*
X154869047Y-91157200D01*
X154869047Y-91157200D02*
X154821428Y-91061961D01*
X154821428Y-91061961D02*
X154821428Y-90681009D01*
X154821428Y-90681009D02*
X154869047Y-90585771D01*
X154869047Y-90585771D02*
X154964285Y-90538152D01*
X154964285Y-90538152D02*
X155154761Y-90538152D01*
X155154761Y-90538152D02*
X155249999Y-90585771D01*
X155249999Y-90585771D02*
X155297618Y-90681009D01*
X155297618Y-90681009D02*
X155297618Y-90776247D01*
X155297618Y-90776247D02*
X154821428Y-90871485D01*
X155726190Y-90538152D02*
X155726190Y-91204819D01*
X155726190Y-90633390D02*
X155773809Y-90585771D01*
X155773809Y-90585771D02*
X155869047Y-90538152D01*
X155869047Y-90538152D02*
X156011904Y-90538152D01*
X156011904Y-90538152D02*
X156107142Y-90585771D01*
X156107142Y-90585771D02*
X156154761Y-90681009D01*
X156154761Y-90681009D02*
X156154761Y-91204819D01*
X156630952Y-90538152D02*
X156630952Y-91204819D01*
X156630952Y-90633390D02*
X156678571Y-90585771D01*
X156678571Y-90585771D02*
X156773809Y-90538152D01*
X156773809Y-90538152D02*
X156916666Y-90538152D01*
X156916666Y-90538152D02*
X157011904Y-90585771D01*
X157011904Y-90585771D02*
X157059523Y-90681009D01*
X157059523Y-90681009D02*
X157059523Y-91204819D01*
X157964285Y-91204819D02*
X157964285Y-90681009D01*
X157964285Y-90681009D02*
X157916666Y-90585771D01*
X157916666Y-90585771D02*
X157821428Y-90538152D01*
X157821428Y-90538152D02*
X157630952Y-90538152D01*
X157630952Y-90538152D02*
X157535714Y-90585771D01*
X157964285Y-91157200D02*
X157869047Y-91204819D01*
X157869047Y-91204819D02*
X157630952Y-91204819D01*
X157630952Y-91204819D02*
X157535714Y-91157200D01*
X157535714Y-91157200D02*
X157488095Y-91061961D01*
X157488095Y-91061961D02*
X157488095Y-90966723D01*
X157488095Y-90966723D02*
X157535714Y-90871485D01*
X157535714Y-90871485D02*
X157630952Y-90823866D01*
X157630952Y-90823866D02*
X157869047Y-90823866D01*
X157869047Y-90823866D02*
X157964285Y-90776247D01*
X159154762Y-90919104D02*
X159630952Y-90919104D01*
X159059524Y-91204819D02*
X159392857Y-90204819D01*
X159392857Y-90204819D02*
X159726190Y-91204819D01*
X160059524Y-91204819D02*
X160059524Y-90538152D01*
X160059524Y-90728628D02*
X160107143Y-90633390D01*
X160107143Y-90633390D02*
X160154762Y-90585771D01*
X160154762Y-90585771D02*
X160250000Y-90538152D01*
X160250000Y-90538152D02*
X160345238Y-90538152D01*
X161059524Y-91157200D02*
X160964286Y-91204819D01*
X160964286Y-91204819D02*
X160773810Y-91204819D01*
X160773810Y-91204819D02*
X160678572Y-91157200D01*
X160678572Y-91157200D02*
X160630953Y-91061961D01*
X160630953Y-91061961D02*
X160630953Y-90681009D01*
X160630953Y-90681009D02*
X160678572Y-90585771D01*
X160678572Y-90585771D02*
X160773810Y-90538152D01*
X160773810Y-90538152D02*
X160964286Y-90538152D01*
X160964286Y-90538152D02*
X161059524Y-90585771D01*
X161059524Y-90585771D02*
X161107143Y-90681009D01*
X161107143Y-90681009D02*
X161107143Y-90776247D01*
X161107143Y-90776247D02*
X160630953Y-90871485D01*
X161964286Y-91204819D02*
X161964286Y-90681009D01*
X161964286Y-90681009D02*
X161916667Y-90585771D01*
X161916667Y-90585771D02*
X161821429Y-90538152D01*
X161821429Y-90538152D02*
X161630953Y-90538152D01*
X161630953Y-90538152D02*
X161535715Y-90585771D01*
X161964286Y-91157200D02*
X161869048Y-91204819D01*
X161869048Y-91204819D02*
X161630953Y-91204819D01*
X161630953Y-91204819D02*
X161535715Y-91157200D01*
X161535715Y-91157200D02*
X161488096Y-91061961D01*
X161488096Y-91061961D02*
X161488096Y-90966723D01*
X161488096Y-90966723D02*
X161535715Y-90871485D01*
X161535715Y-90871485D02*
X161630953Y-90823866D01*
X161630953Y-90823866D02*
X161869048Y-90823866D01*
X161869048Y-90823866D02*
X161964286Y-90776247D01*
X140835473Y-110077970D02*
X140835473Y-110890280D01*
X140835473Y-110890280D02*
X140883256Y-110985846D01*
X140883256Y-110985846D02*
X140931039Y-111033629D01*
X140931039Y-111033629D02*
X141026605Y-111081411D01*
X141026605Y-111081411D02*
X141217736Y-111081411D01*
X141217736Y-111081411D02*
X141313302Y-111033629D01*
X141313302Y-111033629D02*
X141361085Y-110985846D01*
X141361085Y-110985846D02*
X141408868Y-110890280D01*
X141408868Y-110890280D02*
X141408868Y-110077970D01*
X141791131Y-110077970D02*
X142412309Y-110077970D01*
X142412309Y-110077970D02*
X142077829Y-110460234D01*
X142077829Y-110460234D02*
X142221177Y-110460234D01*
X142221177Y-110460234D02*
X142316743Y-110508017D01*
X142316743Y-110508017D02*
X142364526Y-110555799D01*
X142364526Y-110555799D02*
X142412309Y-110651365D01*
X142412309Y-110651365D02*
X142412309Y-110890280D01*
X142412309Y-110890280D02*
X142364526Y-110985846D01*
X142364526Y-110985846D02*
X142316743Y-111033629D01*
X142316743Y-111033629D02*
X142221177Y-111081411D01*
X142221177Y-111081411D02*
X141934480Y-111081411D01*
X141934480Y-111081411D02*
X141838914Y-111033629D01*
X141838914Y-111033629D02*
X141791131Y-110985846D01*
X144704819Y-118061904D02*
X145514342Y-118061904D01*
X145514342Y-118061904D02*
X145609580Y-118014285D01*
X145609580Y-118014285D02*
X145657200Y-117966666D01*
X145657200Y-117966666D02*
X145704819Y-117871428D01*
X145704819Y-117871428D02*
X145704819Y-117680952D01*
X145704819Y-117680952D02*
X145657200Y-117585714D01*
X145657200Y-117585714D02*
X145609580Y-117538095D01*
X145609580Y-117538095D02*
X145514342Y-117490476D01*
X145514342Y-117490476D02*
X144704819Y-117490476D01*
X144800057Y-117061904D02*
X144752438Y-117014285D01*
X144752438Y-117014285D02*
X144704819Y-116919047D01*
X144704819Y-116919047D02*
X144704819Y-116680952D01*
X144704819Y-116680952D02*
X144752438Y-116585714D01*
X144752438Y-116585714D02*
X144800057Y-116538095D01*
X144800057Y-116538095D02*
X144895295Y-116490476D01*
X144895295Y-116490476D02*
X144990533Y-116490476D01*
X144990533Y-116490476D02*
X145133390Y-116538095D01*
X145133390Y-116538095D02*
X145704819Y-117109523D01*
X145704819Y-117109523D02*
X145704819Y-116490476D01*
X160916667Y-118907200D02*
X161059524Y-118954819D01*
X161059524Y-118954819D02*
X161297619Y-118954819D01*
X161297619Y-118954819D02*
X161392857Y-118907200D01*
X161392857Y-118907200D02*
X161440476Y-118859580D01*
X161440476Y-118859580D02*
X161488095Y-118764342D01*
X161488095Y-118764342D02*
X161488095Y-118669104D01*
X161488095Y-118669104D02*
X161440476Y-118573866D01*
X161440476Y-118573866D02*
X161392857Y-118526247D01*
X161392857Y-118526247D02*
X161297619Y-118478628D01*
X161297619Y-118478628D02*
X161107143Y-118431009D01*
X161107143Y-118431009D02*
X161011905Y-118383390D01*
X161011905Y-118383390D02*
X160964286Y-118335771D01*
X160964286Y-118335771D02*
X160916667Y-118240533D01*
X160916667Y-118240533D02*
X160916667Y-118145295D01*
X160916667Y-118145295D02*
X160964286Y-118050057D01*
X160964286Y-118050057D02*
X161011905Y-118002438D01*
X161011905Y-118002438D02*
X161107143Y-117954819D01*
X161107143Y-117954819D02*
X161345238Y-117954819D01*
X161345238Y-117954819D02*
X161488095Y-118002438D01*
X161821429Y-117954819D02*
X162059524Y-118954819D01*
X162059524Y-118954819D02*
X162250000Y-118240533D01*
X162250000Y-118240533D02*
X162440476Y-118954819D01*
X162440476Y-118954819D02*
X162678572Y-117954819D01*
X163011905Y-118050057D02*
X163059524Y-118002438D01*
X163059524Y-118002438D02*
X163154762Y-117954819D01*
X163154762Y-117954819D02*
X163392857Y-117954819D01*
X163392857Y-117954819D02*
X163488095Y-118002438D01*
X163488095Y-118002438D02*
X163535714Y-118050057D01*
X163535714Y-118050057D02*
X163583333Y-118145295D01*
X163583333Y-118145295D02*
X163583333Y-118240533D01*
X163583333Y-118240533D02*
X163535714Y-118383390D01*
X163535714Y-118383390D02*
X162964286Y-118954819D01*
X162964286Y-118954819D02*
X163583333Y-118954819D01*
X148266667Y-130107200D02*
X148409524Y-130154819D01*
X148409524Y-130154819D02*
X148647619Y-130154819D01*
X148647619Y-130154819D02*
X148742857Y-130107200D01*
X148742857Y-130107200D02*
X148790476Y-130059580D01*
X148790476Y-130059580D02*
X148838095Y-129964342D01*
X148838095Y-129964342D02*
X148838095Y-129869104D01*
X148838095Y-129869104D02*
X148790476Y-129773866D01*
X148790476Y-129773866D02*
X148742857Y-129726247D01*
X148742857Y-129726247D02*
X148647619Y-129678628D01*
X148647619Y-129678628D02*
X148457143Y-129631009D01*
X148457143Y-129631009D02*
X148361905Y-129583390D01*
X148361905Y-129583390D02*
X148314286Y-129535771D01*
X148314286Y-129535771D02*
X148266667Y-129440533D01*
X148266667Y-129440533D02*
X148266667Y-129345295D01*
X148266667Y-129345295D02*
X148314286Y-129250057D01*
X148314286Y-129250057D02*
X148361905Y-129202438D01*
X148361905Y-129202438D02*
X148457143Y-129154819D01*
X148457143Y-129154819D02*
X148695238Y-129154819D01*
X148695238Y-129154819D02*
X148838095Y-129202438D01*
X149171429Y-129154819D02*
X149409524Y-130154819D01*
X149409524Y-130154819D02*
X149600000Y-129440533D01*
X149600000Y-129440533D02*
X149790476Y-130154819D01*
X149790476Y-130154819D02*
X150028572Y-129154819D01*
X150933333Y-130154819D02*
X150361905Y-130154819D01*
X150647619Y-130154819D02*
X150647619Y-129154819D01*
X150647619Y-129154819D02*
X150552381Y-129297676D01*
X150552381Y-129297676D02*
X150457143Y-129392914D01*
X150457143Y-129392914D02*
X150361905Y-129440533D01*
X147054819Y-105442857D02*
X146578628Y-105776190D01*
X147054819Y-106014285D02*
X146054819Y-106014285D01*
X146054819Y-106014285D02*
X146054819Y-105633333D01*
X146054819Y-105633333D02*
X146102438Y-105538095D01*
X146102438Y-105538095D02*
X146150057Y-105490476D01*
X146150057Y-105490476D02*
X146245295Y-105442857D01*
X146245295Y-105442857D02*
X146388152Y-105442857D01*
X146388152Y-105442857D02*
X146483390Y-105490476D01*
X146483390Y-105490476D02*
X146531009Y-105538095D01*
X146531009Y-105538095D02*
X146578628Y-105633333D01*
X146578628Y-105633333D02*
X146578628Y-106014285D01*
X147054819Y-104490476D02*
X147054819Y-105061904D01*
X147054819Y-104776190D02*
X146054819Y-104776190D01*
X146054819Y-104776190D02*
X146197676Y-104871428D01*
X146197676Y-104871428D02*
X146292914Y-104966666D01*
X146292914Y-104966666D02*
X146340533Y-105061904D01*
X146054819Y-104157142D02*
X146054819Y-103538095D01*
X146054819Y-103538095D02*
X146435771Y-103871428D01*
X146435771Y-103871428D02*
X146435771Y-103728571D01*
X146435771Y-103728571D02*
X146483390Y-103633333D01*
X146483390Y-103633333D02*
X146531009Y-103585714D01*
X146531009Y-103585714D02*
X146626247Y-103538095D01*
X146626247Y-103538095D02*
X146864342Y-103538095D01*
X146864342Y-103538095D02*
X146959580Y-103585714D01*
X146959580Y-103585714D02*
X147007200Y-103633333D01*
X147007200Y-103633333D02*
X147054819Y-103728571D01*
X147054819Y-103728571D02*
X147054819Y-104014285D01*
X147054819Y-104014285D02*
X147007200Y-104109523D01*
X147007200Y-104109523D02*
X146959580Y-104157142D01*
X145454819Y-105417857D02*
X144978628Y-105751190D01*
X145454819Y-105989285D02*
X144454819Y-105989285D01*
X144454819Y-105989285D02*
X144454819Y-105608333D01*
X144454819Y-105608333D02*
X144502438Y-105513095D01*
X144502438Y-105513095D02*
X144550057Y-105465476D01*
X144550057Y-105465476D02*
X144645295Y-105417857D01*
X144645295Y-105417857D02*
X144788152Y-105417857D01*
X144788152Y-105417857D02*
X144883390Y-105465476D01*
X144883390Y-105465476D02*
X144931009Y-105513095D01*
X144931009Y-105513095D02*
X144978628Y-105608333D01*
X144978628Y-105608333D02*
X144978628Y-105989285D01*
X145454819Y-104465476D02*
X145454819Y-105036904D01*
X145454819Y-104751190D02*
X144454819Y-104751190D01*
X144454819Y-104751190D02*
X144597676Y-104846428D01*
X144597676Y-104846428D02*
X144692914Y-104941666D01*
X144692914Y-104941666D02*
X144740533Y-105036904D01*
X144550057Y-104084523D02*
X144502438Y-104036904D01*
X144502438Y-104036904D02*
X144454819Y-103941666D01*
X144454819Y-103941666D02*
X144454819Y-103703571D01*
X144454819Y-103703571D02*
X144502438Y-103608333D01*
X144502438Y-103608333D02*
X144550057Y-103560714D01*
X144550057Y-103560714D02*
X144645295Y-103513095D01*
X144645295Y-103513095D02*
X144740533Y-103513095D01*
X144740533Y-103513095D02*
X144883390Y-103560714D01*
X144883390Y-103560714D02*
X145454819Y-104132142D01*
X145454819Y-104132142D02*
X145454819Y-103513095D01*
X159704819Y-120666666D02*
X159228628Y-120999999D01*
X159704819Y-121238094D02*
X158704819Y-121238094D01*
X158704819Y-121238094D02*
X158704819Y-120857142D01*
X158704819Y-120857142D02*
X158752438Y-120761904D01*
X158752438Y-120761904D02*
X158800057Y-120714285D01*
X158800057Y-120714285D02*
X158895295Y-120666666D01*
X158895295Y-120666666D02*
X159038152Y-120666666D01*
X159038152Y-120666666D02*
X159133390Y-120714285D01*
X159133390Y-120714285D02*
X159181009Y-120761904D01*
X159181009Y-120761904D02*
X159228628Y-120857142D01*
X159228628Y-120857142D02*
X159228628Y-121238094D01*
X159704819Y-120190475D02*
X159704819Y-119999999D01*
X159704819Y-119999999D02*
X159657200Y-119904761D01*
X159657200Y-119904761D02*
X159609580Y-119857142D01*
X159609580Y-119857142D02*
X159466723Y-119761904D01*
X159466723Y-119761904D02*
X159276247Y-119714285D01*
X159276247Y-119714285D02*
X158895295Y-119714285D01*
X158895295Y-119714285D02*
X158800057Y-119761904D01*
X158800057Y-119761904D02*
X158752438Y-119809523D01*
X158752438Y-119809523D02*
X158704819Y-119904761D01*
X158704819Y-119904761D02*
X158704819Y-120095237D01*
X158704819Y-120095237D02*
X158752438Y-120190475D01*
X158752438Y-120190475D02*
X158800057Y-120238094D01*
X158800057Y-120238094D02*
X158895295Y-120285713D01*
X158895295Y-120285713D02*
X159133390Y-120285713D01*
X159133390Y-120285713D02*
X159228628Y-120238094D01*
X159228628Y-120238094D02*
X159276247Y-120190475D01*
X159276247Y-120190475D02*
X159323866Y-120095237D01*
X159323866Y-120095237D02*
X159323866Y-119904761D01*
X159323866Y-119904761D02*
X159276247Y-119809523D01*
X159276247Y-119809523D02*
X159228628Y-119761904D01*
X159228628Y-119761904D02*
X159133390Y-119714285D01*
X158204819Y-120666666D02*
X157728628Y-120999999D01*
X158204819Y-121238094D02*
X157204819Y-121238094D01*
X157204819Y-121238094D02*
X157204819Y-120857142D01*
X157204819Y-120857142D02*
X157252438Y-120761904D01*
X157252438Y-120761904D02*
X157300057Y-120714285D01*
X157300057Y-120714285D02*
X157395295Y-120666666D01*
X157395295Y-120666666D02*
X157538152Y-120666666D01*
X157538152Y-120666666D02*
X157633390Y-120714285D01*
X157633390Y-120714285D02*
X157681009Y-120761904D01*
X157681009Y-120761904D02*
X157728628Y-120857142D01*
X157728628Y-120857142D02*
X157728628Y-121238094D01*
X157633390Y-120095237D02*
X157585771Y-120190475D01*
X157585771Y-120190475D02*
X157538152Y-120238094D01*
X157538152Y-120238094D02*
X157442914Y-120285713D01*
X157442914Y-120285713D02*
X157395295Y-120285713D01*
X157395295Y-120285713D02*
X157300057Y-120238094D01*
X157300057Y-120238094D02*
X157252438Y-120190475D01*
X157252438Y-120190475D02*
X157204819Y-120095237D01*
X157204819Y-120095237D02*
X157204819Y-119904761D01*
X157204819Y-119904761D02*
X157252438Y-119809523D01*
X157252438Y-119809523D02*
X157300057Y-119761904D01*
X157300057Y-119761904D02*
X157395295Y-119714285D01*
X157395295Y-119714285D02*
X157442914Y-119714285D01*
X157442914Y-119714285D02*
X157538152Y-119761904D01*
X157538152Y-119761904D02*
X157585771Y-119809523D01*
X157585771Y-119809523D02*
X157633390Y-119904761D01*
X157633390Y-119904761D02*
X157633390Y-120095237D01*
X157633390Y-120095237D02*
X157681009Y-120190475D01*
X157681009Y-120190475D02*
X157728628Y-120238094D01*
X157728628Y-120238094D02*
X157823866Y-120285713D01*
X157823866Y-120285713D02*
X158014342Y-120285713D01*
X158014342Y-120285713D02*
X158109580Y-120238094D01*
X158109580Y-120238094D02*
X158157200Y-120190475D01*
X158157200Y-120190475D02*
X158204819Y-120095237D01*
X158204819Y-120095237D02*
X158204819Y-119904761D01*
X158204819Y-119904761D02*
X158157200Y-119809523D01*
X158157200Y-119809523D02*
X158109580Y-119761904D01*
X158109580Y-119761904D02*
X158014342Y-119714285D01*
X158014342Y-119714285D02*
X157823866Y-119714285D01*
X157823866Y-119714285D02*
X157728628Y-119761904D01*
X157728628Y-119761904D02*
X157681009Y-119809523D01*
X157681009Y-119809523D02*
X157633390Y-119904761D01*
X156704819Y-120666666D02*
X156228628Y-120999999D01*
X156704819Y-121238094D02*
X155704819Y-121238094D01*
X155704819Y-121238094D02*
X155704819Y-120857142D01*
X155704819Y-120857142D02*
X155752438Y-120761904D01*
X155752438Y-120761904D02*
X155800057Y-120714285D01*
X155800057Y-120714285D02*
X155895295Y-120666666D01*
X155895295Y-120666666D02*
X156038152Y-120666666D01*
X156038152Y-120666666D02*
X156133390Y-120714285D01*
X156133390Y-120714285D02*
X156181009Y-120761904D01*
X156181009Y-120761904D02*
X156228628Y-120857142D01*
X156228628Y-120857142D02*
X156228628Y-121238094D01*
X155704819Y-120333332D02*
X155704819Y-119666666D01*
X155704819Y-119666666D02*
X156704819Y-120095237D01*
X144433333Y-96554819D02*
X144100000Y-96078628D01*
X143861905Y-96554819D02*
X143861905Y-95554819D01*
X143861905Y-95554819D02*
X144242857Y-95554819D01*
X144242857Y-95554819D02*
X144338095Y-95602438D01*
X144338095Y-95602438D02*
X144385714Y-95650057D01*
X144385714Y-95650057D02*
X144433333Y-95745295D01*
X144433333Y-95745295D02*
X144433333Y-95888152D01*
X144433333Y-95888152D02*
X144385714Y-95983390D01*
X144385714Y-95983390D02*
X144338095Y-96031009D01*
X144338095Y-96031009D02*
X144242857Y-96078628D01*
X144242857Y-96078628D02*
X143861905Y-96078628D01*
X144814286Y-95650057D02*
X144861905Y-95602438D01*
X144861905Y-95602438D02*
X144957143Y-95554819D01*
X144957143Y-95554819D02*
X145195238Y-95554819D01*
X145195238Y-95554819D02*
X145290476Y-95602438D01*
X145290476Y-95602438D02*
X145338095Y-95650057D01*
X145338095Y-95650057D02*
X145385714Y-95745295D01*
X145385714Y-95745295D02*
X145385714Y-95840533D01*
X145385714Y-95840533D02*
X145338095Y-95983390D01*
X145338095Y-95983390D02*
X144766667Y-96554819D01*
X144766667Y-96554819D02*
X145385714Y-96554819D01*
X154333333Y-123154819D02*
X154000000Y-122678628D01*
X153761905Y-123154819D02*
X153761905Y-122154819D01*
X153761905Y-122154819D02*
X154142857Y-122154819D01*
X154142857Y-122154819D02*
X154238095Y-122202438D01*
X154238095Y-122202438D02*
X154285714Y-122250057D01*
X154285714Y-122250057D02*
X154333333Y-122345295D01*
X154333333Y-122345295D02*
X154333333Y-122488152D01*
X154333333Y-122488152D02*
X154285714Y-122583390D01*
X154285714Y-122583390D02*
X154238095Y-122631009D01*
X154238095Y-122631009D02*
X154142857Y-122678628D01*
X154142857Y-122678628D02*
X153761905Y-122678628D01*
X155285714Y-123154819D02*
X154714286Y-123154819D01*
X155000000Y-123154819D02*
X155000000Y-122154819D01*
X155000000Y-122154819D02*
X154904762Y-122297676D01*
X154904762Y-122297676D02*
X154809524Y-122392914D01*
X154809524Y-122392914D02*
X154714286Y-122440533D01*
X141304761Y-99125057D02*
X141209523Y-99077438D01*
X141209523Y-99077438D02*
X141114285Y-98982200D01*
X141114285Y-98982200D02*
X140971428Y-98839342D01*
X140971428Y-98839342D02*
X140876190Y-98791723D01*
X140876190Y-98791723D02*
X140780952Y-98791723D01*
X140828571Y-99029819D02*
X140733333Y-98982200D01*
X140733333Y-98982200D02*
X140638095Y-98886961D01*
X140638095Y-98886961D02*
X140590476Y-98696485D01*
X140590476Y-98696485D02*
X140590476Y-98363152D01*
X140590476Y-98363152D02*
X140638095Y-98172676D01*
X140638095Y-98172676D02*
X140733333Y-98077438D01*
X140733333Y-98077438D02*
X140828571Y-98029819D01*
X140828571Y-98029819D02*
X141019047Y-98029819D01*
X141019047Y-98029819D02*
X141114285Y-98077438D01*
X141114285Y-98077438D02*
X141209523Y-98172676D01*
X141209523Y-98172676D02*
X141257142Y-98363152D01*
X141257142Y-98363152D02*
X141257142Y-98696485D01*
X141257142Y-98696485D02*
X141209523Y-98886961D01*
X141209523Y-98886961D02*
X141114285Y-98982200D01*
X141114285Y-98982200D02*
X141019047Y-99029819D01*
X141019047Y-99029819D02*
X140828571Y-99029819D01*
X142209523Y-99029819D02*
X141638095Y-99029819D01*
X141923809Y-99029819D02*
X141923809Y-98029819D01*
X141923809Y-98029819D02*
X141828571Y-98172676D01*
X141828571Y-98172676D02*
X141733333Y-98267914D01*
X141733333Y-98267914D02*
X141638095Y-98315533D01*
X146283333Y-125654819D02*
X145807143Y-125654819D01*
X145807143Y-125654819D02*
X145807143Y-124654819D01*
X147140476Y-125654819D02*
X146569048Y-125654819D01*
X146854762Y-125654819D02*
X146854762Y-124654819D01*
X146854762Y-124654819D02*
X146759524Y-124797676D01*
X146759524Y-124797676D02*
X146664286Y-124892914D01*
X146664286Y-124892914D02*
X146569048Y-124940533D01*
X159704819Y-117913094D02*
X158704819Y-117913094D01*
X158704819Y-117913094D02*
X158704819Y-117674999D01*
X158704819Y-117674999D02*
X158752438Y-117532142D01*
X158752438Y-117532142D02*
X158847676Y-117436904D01*
X158847676Y-117436904D02*
X158942914Y-117389285D01*
X158942914Y-117389285D02*
X159133390Y-117341666D01*
X159133390Y-117341666D02*
X159276247Y-117341666D01*
X159276247Y-117341666D02*
X159466723Y-117389285D01*
X159466723Y-117389285D02*
X159561961Y-117436904D01*
X159561961Y-117436904D02*
X159657200Y-117532142D01*
X159657200Y-117532142D02*
X159704819Y-117674999D01*
X159704819Y-117674999D02*
X159704819Y-117913094D01*
X158704819Y-117008332D02*
X158704819Y-116389285D01*
X158704819Y-116389285D02*
X159085771Y-116722618D01*
X159085771Y-116722618D02*
X159085771Y-116579761D01*
X159085771Y-116579761D02*
X159133390Y-116484523D01*
X159133390Y-116484523D02*
X159181009Y-116436904D01*
X159181009Y-116436904D02*
X159276247Y-116389285D01*
X159276247Y-116389285D02*
X159514342Y-116389285D01*
X159514342Y-116389285D02*
X159609580Y-116436904D01*
X159609580Y-116436904D02*
X159657200Y-116484523D01*
X159657200Y-116484523D02*
X159704819Y-116579761D01*
X159704819Y-116579761D02*
X159704819Y-116865475D01*
X159704819Y-116865475D02*
X159657200Y-116960713D01*
X159657200Y-116960713D02*
X159609580Y-117008332D01*
X158204819Y-117913094D02*
X157204819Y-117913094D01*
X157204819Y-117913094D02*
X157204819Y-117674999D01*
X157204819Y-117674999D02*
X157252438Y-117532142D01*
X157252438Y-117532142D02*
X157347676Y-117436904D01*
X157347676Y-117436904D02*
X157442914Y-117389285D01*
X157442914Y-117389285D02*
X157633390Y-117341666D01*
X157633390Y-117341666D02*
X157776247Y-117341666D01*
X157776247Y-117341666D02*
X157966723Y-117389285D01*
X157966723Y-117389285D02*
X158061961Y-117436904D01*
X158061961Y-117436904D02*
X158157200Y-117532142D01*
X158157200Y-117532142D02*
X158204819Y-117674999D01*
X158204819Y-117674999D02*
X158204819Y-117913094D01*
X157300057Y-116960713D02*
X157252438Y-116913094D01*
X157252438Y-116913094D02*
X157204819Y-116817856D01*
X157204819Y-116817856D02*
X157204819Y-116579761D01*
X157204819Y-116579761D02*
X157252438Y-116484523D01*
X157252438Y-116484523D02*
X157300057Y-116436904D01*
X157300057Y-116436904D02*
X157395295Y-116389285D01*
X157395295Y-116389285D02*
X157490533Y-116389285D01*
X157490533Y-116389285D02*
X157633390Y-116436904D01*
X157633390Y-116436904D02*
X158204819Y-117008332D01*
X158204819Y-117008332D02*
X158204819Y-116389285D01*
X156704819Y-117838094D02*
X155704819Y-117838094D01*
X155704819Y-117838094D02*
X155704819Y-117599999D01*
X155704819Y-117599999D02*
X155752438Y-117457142D01*
X155752438Y-117457142D02*
X155847676Y-117361904D01*
X155847676Y-117361904D02*
X155942914Y-117314285D01*
X155942914Y-117314285D02*
X156133390Y-117266666D01*
X156133390Y-117266666D02*
X156276247Y-117266666D01*
X156276247Y-117266666D02*
X156466723Y-117314285D01*
X156466723Y-117314285D02*
X156561961Y-117361904D01*
X156561961Y-117361904D02*
X156657200Y-117457142D01*
X156657200Y-117457142D02*
X156704819Y-117599999D01*
X156704819Y-117599999D02*
X156704819Y-117838094D01*
X156704819Y-116314285D02*
X156704819Y-116885713D01*
X156704819Y-116599999D02*
X155704819Y-116599999D01*
X155704819Y-116599999D02*
X155847676Y-116695237D01*
X155847676Y-116695237D02*
X155942914Y-116790475D01*
X155942914Y-116790475D02*
X155990533Y-116885713D01*
D11*
%TO.C,J1*%
X158230000Y-138210000D02*
X160770000Y-138210000D01*
X160770000Y-143290000D02*
X160770000Y-138210000D01*
X160770000Y-143290000D02*
X158230000Y-143290000D01*
X158230000Y-143290000D02*
X158230000Y-138210000D01*
X154320000Y-137560000D02*
G75*
G03*
X154320000Y-137560000I-100000J0D01*
G01*
D12*
%TO.C,C3*%
X147940000Y-119259420D02*
X147940000Y-119540580D01*
X148960000Y-119259420D02*
X148960000Y-119540580D01*
%TO.C,R4*%
X142510000Y-116765580D02*
X142510000Y-116484420D01*
X141490000Y-116765580D02*
X141490000Y-116484420D01*
%TO.C,R3*%
X143240000Y-116484420D02*
X143240000Y-116765580D01*
X144260000Y-116484420D02*
X144260000Y-116765580D01*
%TO.C,C2*%
X147260000Y-119259420D02*
X147260000Y-119540580D01*
X146240000Y-119259420D02*
X146240000Y-119540580D01*
%TO.C,C1*%
X141640580Y-119390000D02*
X141359420Y-119390000D01*
X141640580Y-120410000D02*
X141359420Y-120410000D01*
D11*
%TO.C,J2*%
X158230000Y-129440000D02*
X160770000Y-129440000D01*
X160770000Y-137060000D02*
X160770000Y-129440000D01*
X160770000Y-137060000D02*
X158230000Y-137060000D01*
X158230000Y-137060000D02*
X158230000Y-129440000D01*
X154320000Y-128790000D02*
G75*
G03*
X154320000Y-128790000I-100000J0D01*
G01*
D12*
%TO.C,U4*%
X166250000Y-113250000D02*
X165250000Y-113250000D01*
X166250000Y-112500000D02*
X166250000Y-113250000D01*
X166250000Y-93690000D02*
X148250000Y-93690000D01*
X166250000Y-87750000D02*
X166250000Y-94500000D01*
X148250000Y-113250000D02*
X149250000Y-113250000D01*
X148250000Y-112500000D02*
X148250000Y-113250000D01*
X148250000Y-87750000D02*
X166250000Y-87750000D01*
X148250000Y-87750000D02*
X148250000Y-94500000D01*
D13*
%TO.C,U3*%
X141839600Y-106802600D02*
X142685400Y-106802600D01*
X141839600Y-107463000D02*
X141839600Y-106802600D01*
X142685400Y-109647400D02*
X141839600Y-109647400D01*
X141839600Y-109647400D02*
X141839600Y-108987000D01*
D11*
%TO.C,U2*%
X143990002Y-120350002D02*
X144990000Y-120350002D01*
X143590000Y-118450000D02*
X144990000Y-118450000D01*
D12*
%TO.C,SW2*%
X165870000Y-121630000D02*
X165470000Y-121630000D01*
X161130000Y-126370000D02*
X161530000Y-126370000D01*
X165870000Y-121630000D02*
X165870000Y-126370000D01*
X161130000Y-121630000D02*
X161130000Y-126370000D01*
X162470000Y-126370000D02*
X164530000Y-126370000D01*
X162470000Y-121630000D02*
X164530000Y-121630000D01*
X165870000Y-126370000D02*
X165470000Y-126370000D01*
X161130000Y-121630000D02*
X161530000Y-121630000D01*
%TO.C,SW1*%
X155370000Y-128620000D02*
X155370000Y-128220000D01*
X150630000Y-123880000D02*
X150630000Y-124280000D01*
X155370000Y-128620000D02*
X150630000Y-128620000D01*
X155370000Y-123880000D02*
X150630000Y-123880000D01*
X150630000Y-125220000D02*
X150630000Y-127280000D01*
X155370000Y-125220000D02*
X155370000Y-127280000D01*
X150630000Y-128620000D02*
X150630000Y-128220000D01*
X155370000Y-123880000D02*
X155370000Y-124280000D01*
%TO.C,R13*%
X144022500Y-104537742D02*
X144022500Y-105012258D01*
X142977500Y-104537742D02*
X142977500Y-105012258D01*
%TO.C,R12*%
X141972500Y-104537742D02*
X141972500Y-105012258D01*
X140927500Y-104537742D02*
X140927500Y-105012258D01*
%TO.C,R9*%
X154227500Y-120562258D02*
X154227500Y-120087742D01*
X155272500Y-120562258D02*
X155272500Y-120087742D01*
%TO.C,R8*%
X153522500Y-120562258D02*
X153522500Y-120087742D01*
X152477500Y-120562258D02*
X152477500Y-120087742D01*
%TO.C,R7*%
X150727500Y-120562258D02*
X150727500Y-120087742D01*
X151772500Y-120562258D02*
X151772500Y-120087742D01*
%TO.C,R2*%
X145977500Y-97012742D02*
X145977500Y-97487258D01*
X147022500Y-97012742D02*
X147022500Y-97487258D01*
%TO.C,R1*%
X152237258Y-123322500D02*
X151762742Y-123322500D01*
X152237258Y-122277500D02*
X151762742Y-122277500D01*
D11*
%TO.C,Q1*%
X140427500Y-100172500D02*
G75*
G03*
X140427500Y-100172500I-100000J0D01*
G01*
D14*
X143250000Y-102690000D02*
X143250000Y-101740000D01*
X143250000Y-99560000D02*
X143250000Y-100510000D01*
X143250000Y-99560000D02*
X141850000Y-99560000D01*
X141850000Y-102690000D02*
X143250000Y-102690000D01*
D13*
%TO.C,L1*%
X143445750Y-121177500D02*
X142054250Y-121177500D01*
X142054250Y-125622500D02*
X143445750Y-125622500D01*
D12*
%TO.C,D3*%
X154015000Y-116162500D02*
X154015000Y-118447500D01*
X154015000Y-118447500D02*
X155485000Y-118447500D01*
X155485000Y-118447500D02*
X155485000Y-116162500D01*
%TO.C,D2*%
X152265000Y-116162500D02*
X152265000Y-118447500D01*
X152265000Y-118447500D02*
X153735000Y-118447500D01*
X153735000Y-118447500D02*
X153735000Y-116162500D01*
%TO.C,D1*%
X150515000Y-116125000D02*
X150515000Y-118410000D01*
X150515000Y-118410000D02*
X151985000Y-118410000D01*
X151985000Y-118410000D02*
X151985000Y-116125000D01*
%TD*%
%LPC*%
D15*
%TO.C,J1*%
X154220000Y-139480000D03*
X154220000Y-142020000D03*
%TD*%
D16*
%TO.C,C3*%
X148450000Y-118625000D03*
X148450000Y-120175000D03*
%TD*%
D17*
%TO.C,R4*%
X142000000Y-117400000D03*
X142000000Y-115850000D03*
%TD*%
D16*
%TO.C,R3*%
X143750000Y-115850000D03*
X143750000Y-117400000D03*
%TD*%
%TO.C,C2*%
X146750000Y-120175000D03*
X146750000Y-118625000D03*
%TD*%
D18*
%TO.C,C1*%
X142275000Y-119900000D03*
X140725000Y-119900000D03*
%TD*%
D19*
%TO.C,BT1*%
X157950000Y-145500000D03*
X145250000Y-145500000D03*
%TD*%
D15*
%TO.C,J2*%
X154220000Y-130710000D03*
X154220000Y-133250000D03*
X154220000Y-135790000D03*
%TD*%
D20*
%TO.C,REF\u002A\u002A*%
X142750000Y-91000000D03*
D21*
X142750000Y-91000000D03*
%TD*%
D20*
%TO.C,REF\u002A\u002A*%
X163250000Y-152500000D03*
D21*
X163250000Y-152500000D03*
%TD*%
D22*
%TO.C,U4*%
X157150000Y-104360000D03*
X157150000Y-102960000D03*
X157150000Y-101560000D03*
X155750000Y-104360000D03*
X155750000Y-102960000D03*
X155750000Y-101560000D03*
X155750000Y-101560000D03*
X154350000Y-104360000D03*
X154350000Y-104360000D03*
X154350000Y-102960000D03*
X154350000Y-101560000D03*
D23*
X166000000Y-95240000D03*
X166000000Y-96510000D03*
X166000000Y-97780000D03*
X166000000Y-99050000D03*
X166000000Y-100320000D03*
X166000000Y-101590000D03*
X166000000Y-102860000D03*
X166000000Y-104130000D03*
X166000000Y-105400000D03*
X166000000Y-106670000D03*
X166000000Y-107940000D03*
X166000000Y-109210000D03*
X166000000Y-110480000D03*
X166000000Y-111750000D03*
D24*
X164235000Y-113000000D03*
X162965000Y-113000000D03*
X161695000Y-113000000D03*
X160425000Y-113000000D03*
X159155000Y-113000000D03*
X157885000Y-113000000D03*
X156615000Y-113000000D03*
X155345000Y-113000000D03*
X154075000Y-113000000D03*
X152805000Y-113000000D03*
X151535000Y-113000000D03*
X150265000Y-113000000D03*
D23*
X148500000Y-111750000D03*
X148500000Y-110480000D03*
X148500000Y-109210000D03*
X148500000Y-107940000D03*
X148500000Y-106670000D03*
X148500000Y-105400000D03*
X148500000Y-104130000D03*
X148500000Y-102860000D03*
X148500000Y-101590000D03*
X148500000Y-100320000D03*
X148500000Y-99050000D03*
X148500000Y-97780000D03*
X148500000Y-96510000D03*
X148500000Y-95240000D03*
%TD*%
D25*
%TO.C,U3*%
X141400000Y-108225000D03*
X143600000Y-107275000D03*
X143600000Y-109175000D03*
%TD*%
D26*
%TO.C,U2*%
X143750000Y-118899999D03*
X143750000Y-119399998D03*
X143750000Y-119900000D03*
X145230002Y-119900000D03*
X145230002Y-119399998D03*
X145230002Y-118899999D03*
%TD*%
D27*
%TO.C,SW2*%
X165000000Y-127600000D03*
X165000000Y-120400000D03*
X162000000Y-127600000D03*
X162000000Y-120400000D03*
%TD*%
D28*
%TO.C,SW1*%
X149400000Y-127750000D03*
X156600000Y-127750000D03*
X149400000Y-124750000D03*
X156600000Y-124750000D03*
%TD*%
D29*
%TO.C,R13*%
X143500000Y-105600000D03*
X143500000Y-103950000D03*
%TD*%
%TO.C,R12*%
X141450000Y-105600000D03*
X141450000Y-103950000D03*
%TD*%
D30*
%TO.C,R9*%
X154750000Y-119500000D03*
X154750000Y-121150000D03*
%TD*%
%TO.C,R8*%
X153000000Y-121150000D03*
X153000000Y-119500000D03*
%TD*%
%TO.C,R7*%
X151250000Y-119500000D03*
X151250000Y-121150000D03*
%TD*%
D29*
%TO.C,R2*%
X146500000Y-96425000D03*
X146500000Y-98075000D03*
%TD*%
D31*
%TO.C,R1*%
X151175000Y-122800000D03*
X152825000Y-122800000D03*
%TD*%
D32*
%TO.C,Q1*%
X143575000Y-101125000D03*
X141525000Y-102075000D03*
X141525000Y-100175000D03*
%TD*%
D33*
%TO.C,L1*%
X144477200Y-123400000D03*
X141022800Y-123400000D03*
%TD*%
D34*
%TO.C,D3*%
X154750000Y-116175000D03*
X154750000Y-117750000D03*
%TD*%
%TO.C,D2*%
X153000000Y-116175000D03*
X153000000Y-117750000D03*
%TD*%
%TO.C,D1*%
X151250000Y-116137500D03*
X151250000Y-117712500D03*
%TD*%
%LPD*%
M02*
