%TF.GenerationSoftware,KiCad,Pcbnew,7.0.7*%
%TF.CreationDate,2024-02-09T14:16:11-05:00*%
%TF.ProjectId,key-fob-pcb,6b65792d-666f-4622-9d70-63622e6b6963,rev?*%
%TF.SameCoordinates,Original*%
%TF.FileFunction,Copper,L2,Bot*%
%TF.FilePolarity,Positive*%
%FSLAX46Y46*%
G04 Gerber Fmt 4.6, Leading zero omitted, Abs format (unit mm)*
G04 Created by KiCad (PCBNEW 7.0.7) date 2024-02-09 14:16:11*
%MOMM*%
%LPD*%
G01*
G04 APERTURE LIST*
%TA.AperFunction,ComponentPad*%
%ADD10C,1.530000*%
%TD*%
%TA.AperFunction,ConnectorPad*%
%ADD11C,6.400000*%
%TD*%
%TA.AperFunction,ComponentPad*%
%ADD12C,3.600000*%
%TD*%
%TA.AperFunction,ViaPad*%
%ADD13C,0.600000*%
%TD*%
%TA.AperFunction,Conductor*%
%ADD14C,0.177800*%
%TD*%
G04 APERTURE END LIST*
D10*
%TO.P,BT1,P*%
%TO.N,/ADC/VIN*%
X157950000Y-145500000D03*
%TO.P,BT1,N*%
%TO.N,GND*%
X145250000Y-145500000D03*
%TD*%
D11*
%TO.P,REF\u002A\u002A,1*%
%TO.N,N/C*%
X142750000Y-91000000D03*
D12*
X142750000Y-91000000D03*
%TD*%
D11*
%TO.P,REF\u002A\u002A,1*%
%TO.N,N/C*%
X163250000Y-152500000D03*
D12*
X163250000Y-152500000D03*
%TD*%
D13*
%TO.N,GND*%
X146500000Y-104250000D03*
X157000000Y-110500000D03*
X150750000Y-106000000D03*
X154400000Y-100600000D03*
X153400000Y-101600000D03*
X153400000Y-102900000D03*
X153400000Y-104400000D03*
X154400000Y-105300000D03*
X155800000Y-105300000D03*
X157200000Y-105300000D03*
X158100000Y-104400000D03*
X158100000Y-102900000D03*
X158100000Y-101600000D03*
X157200000Y-100600000D03*
X155800000Y-100600000D03*
X147600000Y-121700000D03*
X148400000Y-121700000D03*
X148400000Y-121000000D03*
X147600000Y-121000000D03*
X146800000Y-121000000D03*
%TO.N,/VBAT_ADC_EN*%
X143600000Y-109175000D03*
X145900000Y-109200000D03*
%TO.N,/VBAT_ADC*%
X144300000Y-100300000D03*
X146000000Y-100300000D03*
%TO.N,/EN*%
X158500000Y-108000000D03*
X162000000Y-115100000D03*
%TO.N,Net-(Q1-Pad1)*%
X140300000Y-106900000D03*
X140200000Y-101400000D03*
%TO.N,/RX*%
X160250000Y-111500000D03*
X160250000Y-115000000D03*
%TO.N,/TX*%
X159250000Y-111500000D03*
X159250000Y-115000000D03*
%TO.N,GND*%
X140050000Y-120200000D03*
X140050000Y-119400000D03*
X141950000Y-115400000D03*
%TD*%
D14*
%TO.N,/VBAT_ADC_EN*%
X145900000Y-109200000D02*
X143625000Y-109200000D01*
X143625000Y-109200000D02*
X143600000Y-109175000D01*
%TO.N,/VBAT_ADC*%
X146000000Y-100300000D02*
X144300000Y-100300000D01*
%TO.N,/EN*%
X162000000Y-111500000D02*
X158500000Y-108000000D01*
X162000000Y-115100000D02*
X162000000Y-111500000D01*
%TO.N,Net-(Q1-Pad1)*%
X140200000Y-106800000D02*
X140300000Y-106900000D01*
X140200000Y-101400000D02*
X140200000Y-106800000D01*
%TO.N,/RX*%
X160250000Y-115000000D02*
X160250000Y-111500000D01*
%TO.N,/TX*%
X159250000Y-115000000D02*
X159250000Y-111500000D01*
%TD*%
%TA.AperFunction,Conductor*%
%TO.N,GND*%
G36*
X146692539Y-87020185D02*
G01*
X146738294Y-87072989D01*
X146749500Y-87124500D01*
X146749500Y-94321963D01*
X146757190Y-94348154D01*
X146760947Y-94365423D01*
X146764835Y-94392456D01*
X146764835Y-94392457D01*
X146776173Y-94417283D01*
X146782355Y-94433858D01*
X146790046Y-94460051D01*
X146790047Y-94460053D01*
X146804806Y-94483019D01*
X146813282Y-94498541D01*
X146824623Y-94523373D01*
X146836437Y-94537007D01*
X146842496Y-94544000D01*
X146853095Y-94558160D01*
X146867853Y-94581123D01*
X146867857Y-94581128D01*
X146888488Y-94599006D01*
X146900992Y-94611510D01*
X146918871Y-94632142D01*
X146918872Y-94632143D01*
X146941844Y-94646905D01*
X146955996Y-94657500D01*
X146976627Y-94675377D01*
X146999899Y-94686005D01*
X147001451Y-94686714D01*
X147016978Y-94695192D01*
X147039947Y-94709953D01*
X147066136Y-94717643D01*
X147082713Y-94723826D01*
X147107538Y-94735163D01*
X147107539Y-94735163D01*
X147107543Y-94735165D01*
X147134564Y-94739050D01*
X147151846Y-94742809D01*
X147178039Y-94750500D01*
X147214201Y-94750500D01*
X167125500Y-94750500D01*
X167192539Y-94770185D01*
X167238294Y-94822989D01*
X167249500Y-94874500D01*
X167249500Y-156375500D01*
X167229815Y-156442539D01*
X167177011Y-156488294D01*
X167125500Y-156499500D01*
X138874500Y-156499500D01*
X138807461Y-156479815D01*
X138761706Y-156427011D01*
X138750500Y-156375500D01*
X138750500Y-152500002D01*
X159917612Y-152500002D01*
X159937147Y-152860291D01*
X159995523Y-153216370D01*
X159995524Y-153216373D01*
X160092050Y-153564030D01*
X160092051Y-153564032D01*
X160092053Y-153564036D01*
X160225607Y-153899233D01*
X160394620Y-154218025D01*
X160597110Y-154516675D01*
X160830702Y-154791681D01*
X161092658Y-155039819D01*
X161379908Y-155258180D01*
X161379914Y-155258184D01*
X161379920Y-155258188D01*
X161689085Y-155444206D01*
X161689090Y-155444208D01*
X162016545Y-155595706D01*
X162016549Y-155595706D01*
X162016556Y-155595710D01*
X162358492Y-155710921D01*
X162710880Y-155788488D01*
X163069588Y-155827500D01*
X163069594Y-155827500D01*
X163430406Y-155827500D01*
X163430412Y-155827500D01*
X163789120Y-155788488D01*
X164141508Y-155710921D01*
X164483444Y-155595710D01*
X164483451Y-155595706D01*
X164483454Y-155595706D01*
X164810909Y-155444208D01*
X164810914Y-155444206D01*
X164810915Y-155444205D01*
X164810918Y-155444204D01*
X165120092Y-155258180D01*
X165407342Y-155039819D01*
X165669298Y-154791681D01*
X165902890Y-154516675D01*
X166105380Y-154218025D01*
X166274393Y-153899233D01*
X166407947Y-153564036D01*
X166504478Y-153216365D01*
X166562852Y-152860294D01*
X166582387Y-152500000D01*
X166562852Y-152139706D01*
X166504478Y-151783635D01*
X166461008Y-151627072D01*
X166407949Y-151435969D01*
X166407948Y-151435967D01*
X166274394Y-151100770D01*
X166274393Y-151100767D01*
X166105380Y-150781975D01*
X165902890Y-150483325D01*
X165669298Y-150208319D01*
X165407342Y-149960181D01*
X165407335Y-149960175D01*
X165407332Y-149960173D01*
X165311938Y-149887657D01*
X165120092Y-149741820D01*
X165120086Y-149741816D01*
X165120079Y-149741811D01*
X164810914Y-149555793D01*
X164810909Y-149555791D01*
X164483454Y-149404293D01*
X164483449Y-149404292D01*
X164483446Y-149404291D01*
X164483444Y-149404290D01*
X164374452Y-149367566D01*
X164141510Y-149289079D01*
X163789118Y-149211511D01*
X163430413Y-149172500D01*
X163430412Y-149172500D01*
X163069588Y-149172500D01*
X163069586Y-149172500D01*
X162710881Y-149211511D01*
X162358489Y-149289079D01*
X162016550Y-149404292D01*
X162016545Y-149404293D01*
X161689090Y-149555791D01*
X161689085Y-149555793D01*
X161379920Y-149741811D01*
X161379912Y-149741817D01*
X161092667Y-149960173D01*
X161092658Y-149960181D01*
X160830699Y-150208321D01*
X160830694Y-150208327D01*
X160597109Y-150483325D01*
X160394620Y-150781974D01*
X160225611Y-151100758D01*
X160225605Y-151100770D01*
X160092051Y-151435967D01*
X160092050Y-151435969D01*
X159995524Y-151783626D01*
X159995523Y-151783629D01*
X159937147Y-152139708D01*
X159917612Y-152499997D01*
X159917612Y-152500002D01*
X138750500Y-152500002D01*
X138750500Y-145499999D01*
X157052584Y-145499999D01*
X157072195Y-145686585D01*
X157072196Y-145686587D01*
X157130170Y-145865013D01*
X157130171Y-145865015D01*
X157207609Y-145999142D01*
X157223975Y-146027488D01*
X157267703Y-146076053D01*
X157349505Y-146166905D01*
X157349512Y-146166911D01*
X157501287Y-146277182D01*
X157501288Y-146277182D01*
X157501292Y-146277185D01*
X157641069Y-146339417D01*
X157672678Y-146353491D01*
X157672683Y-146353493D01*
X157856194Y-146392500D01*
X158043806Y-146392500D01*
X158227317Y-146353493D01*
X158398708Y-146277185D01*
X158550489Y-146166910D01*
X158676025Y-146027488D01*
X158769830Y-145865012D01*
X158827805Y-145686583D01*
X158847416Y-145500000D01*
X158827805Y-145313417D01*
X158769830Y-145134988D01*
X158676025Y-144972512D01*
X158626856Y-144917904D01*
X158550494Y-144833094D01*
X158550487Y-144833088D01*
X158398712Y-144722817D01*
X158398709Y-144722815D01*
X158398708Y-144722815D01*
X158336474Y-144695106D01*
X158227321Y-144646508D01*
X158227316Y-144646506D01*
X158043806Y-144607500D01*
X157856194Y-144607500D01*
X157672683Y-144646506D01*
X157672678Y-144646508D01*
X157501292Y-144722815D01*
X157501287Y-144722817D01*
X157349512Y-144833088D01*
X157349505Y-144833094D01*
X157223974Y-144972513D01*
X157130171Y-145134984D01*
X157130170Y-145134986D01*
X157072196Y-145313412D01*
X157072195Y-145313414D01*
X157052584Y-145499999D01*
X138750500Y-145499999D01*
X138750500Y-115000000D01*
X158818104Y-115000000D01*
X158835598Y-115121678D01*
X158835599Y-115121682D01*
X158881267Y-115221679D01*
X158886666Y-115233501D01*
X158967168Y-115326405D01*
X159070584Y-115392866D01*
X159188535Y-115427500D01*
X159311465Y-115427500D01*
X159429416Y-115392866D01*
X159532832Y-115326405D01*
X159613334Y-115233501D01*
X159637206Y-115181227D01*
X159682961Y-115128424D01*
X159750000Y-115108740D01*
X159817040Y-115128425D01*
X159862793Y-115181227D01*
X159886666Y-115233501D01*
X159967168Y-115326405D01*
X160070584Y-115392866D01*
X160188535Y-115427500D01*
X160311465Y-115427500D01*
X160429416Y-115392866D01*
X160532832Y-115326405D01*
X160613334Y-115233501D01*
X160649676Y-115153922D01*
X160664400Y-115121682D01*
X160664401Y-115121678D01*
X160667518Y-115099999D01*
X160681896Y-115000000D01*
X160664401Y-114878321D01*
X160664400Y-114878317D01*
X160631505Y-114806288D01*
X160613334Y-114766499D01*
X160532832Y-114673595D01*
X160532831Y-114673594D01*
X160532830Y-114673593D01*
X160532827Y-114673591D01*
X160523359Y-114667506D01*
X160477605Y-114614701D01*
X160466400Y-114563192D01*
X160466400Y-111936806D01*
X160486085Y-111869767D01*
X160523359Y-111832492D01*
X160532832Y-111826405D01*
X160613334Y-111733501D01*
X160649676Y-111653922D01*
X160664400Y-111621682D01*
X160664401Y-111621678D01*
X160669008Y-111589636D01*
X160681896Y-111500000D01*
X160664401Y-111378321D01*
X160664400Y-111378317D01*
X160613334Y-111266500D01*
X160613334Y-111266499D01*
X160532832Y-111173595D01*
X160429416Y-111107134D01*
X160311465Y-111072500D01*
X160188535Y-111072500D01*
X160070584Y-111107134D01*
X160070582Y-111107134D01*
X160070582Y-111107135D01*
X159967169Y-111173594D01*
X159886667Y-111266497D01*
X159886665Y-111266500D01*
X159862794Y-111318771D01*
X159817039Y-111371575D01*
X159749999Y-111391259D01*
X159682960Y-111371574D01*
X159637206Y-111318771D01*
X159613334Y-111266500D01*
X159613334Y-111266499D01*
X159532832Y-111173595D01*
X159429416Y-111107134D01*
X159311465Y-111072500D01*
X159188535Y-111072500D01*
X159070584Y-111107134D01*
X159070582Y-111107134D01*
X159070582Y-111107135D01*
X158967169Y-111173594D01*
X158886667Y-111266497D01*
X158886665Y-111266500D01*
X158835599Y-111378317D01*
X158835598Y-111378321D01*
X158818104Y-111500000D01*
X158835598Y-111621678D01*
X158835599Y-111621682D01*
X158886665Y-111733499D01*
X158886666Y-111733501D01*
X158967168Y-111826405D01*
X158976639Y-111832491D01*
X159022392Y-111885290D01*
X159033600Y-111936806D01*
X159033600Y-114563192D01*
X159013915Y-114630231D01*
X158976641Y-114667506D01*
X158967172Y-114673591D01*
X158967169Y-114673593D01*
X158886667Y-114766497D01*
X158886665Y-114766500D01*
X158835599Y-114878317D01*
X158835598Y-114878321D01*
X158818104Y-115000000D01*
X138750500Y-115000000D01*
X138750500Y-109174999D01*
X143168104Y-109174999D01*
X143185598Y-109296678D01*
X143185599Y-109296682D01*
X143236665Y-109408499D01*
X143236666Y-109408501D01*
X143317168Y-109501405D01*
X143420584Y-109567866D01*
X143538535Y-109602500D01*
X143661465Y-109602500D01*
X143779416Y-109567866D01*
X143882832Y-109501405D01*
X143919405Y-109459196D01*
X143978184Y-109421423D01*
X144013118Y-109416400D01*
X145465219Y-109416400D01*
X145532258Y-109436085D01*
X145558931Y-109459196D01*
X145617168Y-109526405D01*
X145720584Y-109592866D01*
X145838535Y-109627500D01*
X145961465Y-109627500D01*
X146079416Y-109592866D01*
X146182832Y-109526405D01*
X146263334Y-109433501D01*
X146314401Y-109321679D01*
X146331896Y-109200000D01*
X146314401Y-109078321D01*
X146314400Y-109078317D01*
X146281505Y-109006288D01*
X146263334Y-108966499D01*
X146182832Y-108873595D01*
X146079416Y-108807134D01*
X145961465Y-108772500D01*
X145838535Y-108772500D01*
X145720584Y-108807134D01*
X145720582Y-108807134D01*
X145720582Y-108807135D01*
X145617169Y-108873594D01*
X145558932Y-108940803D01*
X145500153Y-108978577D01*
X145465219Y-108983600D01*
X144056444Y-108983600D01*
X143989405Y-108963915D01*
X143962732Y-108940803D01*
X143882834Y-108848597D01*
X143882833Y-108848596D01*
X143882832Y-108848595D01*
X143779416Y-108782134D01*
X143661465Y-108747500D01*
X143538535Y-108747500D01*
X143420584Y-108782134D01*
X143420582Y-108782134D01*
X143420582Y-108782135D01*
X143317169Y-108848594D01*
X143236667Y-108941497D01*
X143236665Y-108941500D01*
X143185599Y-109053317D01*
X143185598Y-109053321D01*
X143168104Y-109174999D01*
X138750500Y-109174999D01*
X138750500Y-108000000D01*
X158068104Y-108000000D01*
X158085598Y-108121678D01*
X158085599Y-108121682D01*
X158136665Y-108233499D01*
X158136666Y-108233501D01*
X158217168Y-108326405D01*
X158320584Y-108392866D01*
X158438535Y-108427500D01*
X158570102Y-108427500D01*
X158637141Y-108447185D01*
X158657783Y-108463819D01*
X161747281Y-111553317D01*
X161780766Y-111614640D01*
X161783600Y-111640998D01*
X161783600Y-114663192D01*
X161763915Y-114730231D01*
X161726641Y-114767506D01*
X161717172Y-114773591D01*
X161717169Y-114773593D01*
X161636667Y-114866497D01*
X161636665Y-114866500D01*
X161585599Y-114978317D01*
X161585598Y-114978321D01*
X161568104Y-115100000D01*
X161585598Y-115221678D01*
X161585599Y-115221682D01*
X161633425Y-115326405D01*
X161636666Y-115333501D01*
X161717168Y-115426405D01*
X161820584Y-115492866D01*
X161938535Y-115527500D01*
X162061465Y-115527500D01*
X162179416Y-115492866D01*
X162282832Y-115426405D01*
X162363334Y-115333501D01*
X162414401Y-115221679D01*
X162431896Y-115100000D01*
X162414401Y-114978321D01*
X162414400Y-114978317D01*
X162365652Y-114871575D01*
X162363334Y-114866499D01*
X162282832Y-114773595D01*
X162282831Y-114773594D01*
X162282830Y-114773593D01*
X162282827Y-114773591D01*
X162273359Y-114767506D01*
X162227605Y-114714701D01*
X162216400Y-114663192D01*
X162216400Y-111507291D01*
X162216485Y-111504045D01*
X162216697Y-111500000D01*
X162218511Y-111465391D01*
X162211629Y-111447464D01*
X162206100Y-111428800D01*
X162202108Y-111410016D01*
X162201408Y-111409053D01*
X162185962Y-111380602D01*
X162185542Y-111379507D01*
X162171965Y-111365930D01*
X162159327Y-111351133D01*
X162148034Y-111335589D01*
X162147006Y-111334996D01*
X162121324Y-111315289D01*
X158959964Y-108153929D01*
X158926479Y-108092606D01*
X158924907Y-108048605D01*
X158931896Y-108000000D01*
X158914401Y-107878321D01*
X158914400Y-107878317D01*
X158863334Y-107766500D01*
X158863334Y-107766499D01*
X158782832Y-107673595D01*
X158679416Y-107607134D01*
X158561465Y-107572500D01*
X158438535Y-107572500D01*
X158320584Y-107607134D01*
X158320582Y-107607134D01*
X158320582Y-107607135D01*
X158217169Y-107673594D01*
X158136667Y-107766497D01*
X158136665Y-107766500D01*
X158085599Y-107878317D01*
X158085598Y-107878321D01*
X158068104Y-108000000D01*
X138750500Y-108000000D01*
X138750500Y-101399999D01*
X139768104Y-101399999D01*
X139785598Y-101521678D01*
X139785599Y-101521682D01*
X139836665Y-101633499D01*
X139836666Y-101633501D01*
X139917168Y-101726405D01*
X139926639Y-101732491D01*
X139972392Y-101785290D01*
X139983600Y-101836806D01*
X139983600Y-106566084D01*
X139963915Y-106633123D01*
X139953314Y-106647286D01*
X139936667Y-106666497D01*
X139936665Y-106666500D01*
X139885599Y-106778317D01*
X139885598Y-106778321D01*
X139868104Y-106899999D01*
X139885598Y-107021678D01*
X139885599Y-107021682D01*
X139936665Y-107133499D01*
X139936666Y-107133501D01*
X140017168Y-107226405D01*
X140120584Y-107292866D01*
X140238535Y-107327500D01*
X140361465Y-107327500D01*
X140479416Y-107292866D01*
X140582832Y-107226405D01*
X140663334Y-107133501D01*
X140714401Y-107021679D01*
X140731896Y-106900000D01*
X140714401Y-106778321D01*
X140714400Y-106778317D01*
X140663334Y-106666500D01*
X140663334Y-106666499D01*
X140582832Y-106573595D01*
X140582831Y-106573594D01*
X140582830Y-106573593D01*
X140473360Y-106503241D01*
X140427606Y-106450437D01*
X140416400Y-106398926D01*
X140416400Y-101836806D01*
X140436085Y-101769767D01*
X140473359Y-101732492D01*
X140482832Y-101726405D01*
X140563334Y-101633501D01*
X140614401Y-101521679D01*
X140631896Y-101400000D01*
X140614401Y-101278321D01*
X140614400Y-101278317D01*
X140563334Y-101166500D01*
X140563334Y-101166499D01*
X140482832Y-101073595D01*
X140379416Y-101007134D01*
X140261465Y-100972500D01*
X140138535Y-100972500D01*
X140020584Y-101007134D01*
X140020582Y-101007134D01*
X140020582Y-101007135D01*
X139917169Y-101073594D01*
X139836667Y-101166497D01*
X139836665Y-101166500D01*
X139785599Y-101278317D01*
X139785598Y-101278321D01*
X139768104Y-101399999D01*
X138750500Y-101399999D01*
X138750500Y-100300000D01*
X143868104Y-100300000D01*
X143885598Y-100421678D01*
X143885599Y-100421682D01*
X143928856Y-100516400D01*
X143936666Y-100533501D01*
X144017168Y-100626405D01*
X144120584Y-100692866D01*
X144238535Y-100727500D01*
X144361465Y-100727500D01*
X144479416Y-100692866D01*
X144582832Y-100626405D01*
X144641068Y-100559196D01*
X144699847Y-100521423D01*
X144734781Y-100516400D01*
X145565219Y-100516400D01*
X145632258Y-100536085D01*
X145658931Y-100559196D01*
X145717168Y-100626405D01*
X145820584Y-100692866D01*
X145938535Y-100727500D01*
X146061465Y-100727500D01*
X146179416Y-100692866D01*
X146282832Y-100626405D01*
X146363334Y-100533501D01*
X146414401Y-100421679D01*
X146431896Y-100300000D01*
X146414401Y-100178321D01*
X146414400Y-100178317D01*
X146381505Y-100106288D01*
X146363334Y-100066499D01*
X146282832Y-99973595D01*
X146179416Y-99907134D01*
X146061465Y-99872500D01*
X145938535Y-99872500D01*
X145820584Y-99907134D01*
X145820582Y-99907134D01*
X145820582Y-99907135D01*
X145717169Y-99973594D01*
X145658932Y-100040803D01*
X145600153Y-100078577D01*
X145565219Y-100083600D01*
X144734781Y-100083600D01*
X144667742Y-100063915D01*
X144641068Y-100040803D01*
X144582832Y-99973595D01*
X144479416Y-99907134D01*
X144361465Y-99872500D01*
X144238535Y-99872500D01*
X144120584Y-99907134D01*
X144120582Y-99907134D01*
X144120582Y-99907135D01*
X144017169Y-99973594D01*
X143936667Y-100066497D01*
X143936665Y-100066500D01*
X143885599Y-100178317D01*
X143885598Y-100178321D01*
X143868104Y-100300000D01*
X138750500Y-100300000D01*
X138750500Y-91000002D01*
X139417612Y-91000002D01*
X139437147Y-91360291D01*
X139495523Y-91716370D01*
X139495524Y-91716373D01*
X139592050Y-92064030D01*
X139592051Y-92064032D01*
X139592053Y-92064036D01*
X139725607Y-92399233D01*
X139894620Y-92718025D01*
X140097110Y-93016675D01*
X140330702Y-93291681D01*
X140592658Y-93539819D01*
X140879908Y-93758180D01*
X140879914Y-93758184D01*
X140879920Y-93758188D01*
X141189085Y-93944206D01*
X141189090Y-93944208D01*
X141516545Y-94095706D01*
X141516549Y-94095706D01*
X141516556Y-94095710D01*
X141858492Y-94210921D01*
X142210880Y-94288488D01*
X142569588Y-94327500D01*
X142569594Y-94327500D01*
X142930406Y-94327500D01*
X142930412Y-94327500D01*
X143289120Y-94288488D01*
X143641508Y-94210921D01*
X143983444Y-94095710D01*
X143983451Y-94095706D01*
X143983454Y-94095706D01*
X144243022Y-93975615D01*
X144310918Y-93944204D01*
X144584063Y-93779858D01*
X144620079Y-93758188D01*
X144620080Y-93758187D01*
X144620092Y-93758180D01*
X144907342Y-93539819D01*
X145169298Y-93291681D01*
X145402890Y-93016675D01*
X145605380Y-92718025D01*
X145774393Y-92399233D01*
X145907947Y-92064036D01*
X146004478Y-91716365D01*
X146062852Y-91360294D01*
X146082387Y-91000000D01*
X146062852Y-90639706D01*
X146004478Y-90283635D01*
X145961008Y-90127072D01*
X145907949Y-89935969D01*
X145907948Y-89935967D01*
X145774394Y-89600770D01*
X145774393Y-89600767D01*
X145605380Y-89281975D01*
X145402890Y-88983325D01*
X145169298Y-88708319D01*
X144907342Y-88460181D01*
X144907335Y-88460175D01*
X144907332Y-88460173D01*
X144811938Y-88387657D01*
X144620092Y-88241820D01*
X144620086Y-88241816D01*
X144620079Y-88241811D01*
X144310914Y-88055793D01*
X144310909Y-88055791D01*
X143983454Y-87904293D01*
X143983449Y-87904292D01*
X143983446Y-87904291D01*
X143983444Y-87904290D01*
X143874452Y-87867566D01*
X143641510Y-87789079D01*
X143289118Y-87711511D01*
X142930413Y-87672500D01*
X142930412Y-87672500D01*
X142569588Y-87672500D01*
X142569586Y-87672500D01*
X142210881Y-87711511D01*
X141858489Y-87789079D01*
X141516550Y-87904292D01*
X141516545Y-87904293D01*
X141189090Y-88055791D01*
X141189085Y-88055793D01*
X140879920Y-88241811D01*
X140879912Y-88241817D01*
X140592667Y-88460173D01*
X140592658Y-88460181D01*
X140330699Y-88708321D01*
X140330694Y-88708327D01*
X140097109Y-88983325D01*
X139894620Y-89281974D01*
X139725611Y-89600758D01*
X139725605Y-89600770D01*
X139592051Y-89935967D01*
X139592050Y-89935969D01*
X139495524Y-90283626D01*
X139495523Y-90283629D01*
X139437147Y-90639708D01*
X139417612Y-90999997D01*
X139417612Y-91000002D01*
X138750500Y-91000002D01*
X138750500Y-87124500D01*
X138770185Y-87057461D01*
X138822989Y-87011706D01*
X138874500Y-87000500D01*
X146625500Y-87000500D01*
X146692539Y-87020185D01*
G37*
%TD.AperFunction*%
%TD*%
M02*
