%TF.GenerationSoftware,KiCad,Pcbnew,7.0.7*%
%TF.CreationDate,2024-02-09T14:16:11-05:00*%
%TF.ProjectId,key-fob-pcb,6b65792d-666f-4622-9d70-63622e6b6963,rev?*%
%TF.SameCoordinates,Original*%
%TF.FileFunction,Legend,Bot*%
%TF.FilePolarity,Positive*%
%FSLAX46Y46*%
G04 Gerber Fmt 4.6, Leading zero omitted, Abs format (unit mm)*
G04 Created by KiCad (PCBNEW 7.0.7) date 2024-02-09 14:16:11*
%MOMM*%
%LPD*%
G01*
G04 APERTURE LIST*
%ADD10C,0.152400*%
%ADD11C,0.150000*%
%ADD12C,0.127000*%
%ADD13C,1.734000*%
%ADD14C,6.400000*%
%ADD15C,3.600000*%
G04 APERTURE END LIST*
D10*
X156685451Y-150909336D02*
X156506879Y-150968860D01*
X156506879Y-150968860D02*
X156447356Y-151028384D01*
X156447356Y-151028384D02*
X156387832Y-151147432D01*
X156387832Y-151147432D02*
X156387832Y-151326003D01*
X156387832Y-151326003D02*
X156447356Y-151445051D01*
X156447356Y-151445051D02*
X156506879Y-151504575D01*
X156506879Y-151504575D02*
X156625927Y-151564098D01*
X156625927Y-151564098D02*
X157102117Y-151564098D01*
X157102117Y-151564098D02*
X157102117Y-150314098D01*
X157102117Y-150314098D02*
X156685451Y-150314098D01*
X156685451Y-150314098D02*
X156566403Y-150373622D01*
X156566403Y-150373622D02*
X156506879Y-150433146D01*
X156506879Y-150433146D02*
X156447356Y-150552194D01*
X156447356Y-150552194D02*
X156447356Y-150671241D01*
X156447356Y-150671241D02*
X156506879Y-150790289D01*
X156506879Y-150790289D02*
X156566403Y-150849813D01*
X156566403Y-150849813D02*
X156685451Y-150909336D01*
X156685451Y-150909336D02*
X157102117Y-150909336D01*
X155375927Y-151504575D02*
X155494975Y-151564098D01*
X155494975Y-151564098D02*
X155733070Y-151564098D01*
X155733070Y-151564098D02*
X155852117Y-151504575D01*
X155852117Y-151504575D02*
X155911641Y-151385527D01*
X155911641Y-151385527D02*
X155911641Y-150909336D01*
X155911641Y-150909336D02*
X155852117Y-150790289D01*
X155852117Y-150790289D02*
X155733070Y-150730765D01*
X155733070Y-150730765D02*
X155494975Y-150730765D01*
X155494975Y-150730765D02*
X155375927Y-150790289D01*
X155375927Y-150790289D02*
X155316403Y-150909336D01*
X155316403Y-150909336D02*
X155316403Y-151028384D01*
X155316403Y-151028384D02*
X155911641Y-151147432D01*
X154780688Y-150730765D02*
X154780688Y-151564098D01*
X154780688Y-150849813D02*
X154721165Y-150790289D01*
X154721165Y-150790289D02*
X154602117Y-150730765D01*
X154602117Y-150730765D02*
X154423546Y-150730765D01*
X154423546Y-150730765D02*
X154304498Y-150790289D01*
X154304498Y-150790289D02*
X154244974Y-150909336D01*
X154244974Y-150909336D02*
X154244974Y-151564098D01*
X152697355Y-151564098D02*
X152697355Y-150314098D01*
X152697355Y-150314098D02*
X152280689Y-151206955D01*
X152280689Y-151206955D02*
X151864022Y-150314098D01*
X151864022Y-150314098D02*
X151864022Y-151564098D01*
X150733070Y-151564098D02*
X150733070Y-150909336D01*
X150733070Y-150909336D02*
X150792594Y-150790289D01*
X150792594Y-150790289D02*
X150911642Y-150730765D01*
X150911642Y-150730765D02*
X151149737Y-150730765D01*
X151149737Y-150730765D02*
X151268784Y-150790289D01*
X150733070Y-151504575D02*
X150852118Y-151564098D01*
X150852118Y-151564098D02*
X151149737Y-151564098D01*
X151149737Y-151564098D02*
X151268784Y-151504575D01*
X151268784Y-151504575D02*
X151328308Y-151385527D01*
X151328308Y-151385527D02*
X151328308Y-151266479D01*
X151328308Y-151266479D02*
X151268784Y-151147432D01*
X151268784Y-151147432D02*
X151149737Y-151087908D01*
X151149737Y-151087908D02*
X150852118Y-151087908D01*
X150852118Y-151087908D02*
X150733070Y-151028384D01*
X150137832Y-151564098D02*
X150137832Y-150730765D01*
X150137832Y-150968860D02*
X150078309Y-150849813D01*
X150078309Y-150849813D02*
X150018785Y-150790289D01*
X150018785Y-150790289D02*
X149899737Y-150730765D01*
X149899737Y-150730765D02*
X149780690Y-150730765D01*
X149542594Y-150730765D02*
X149066403Y-150730765D01*
X149364022Y-150314098D02*
X149364022Y-151385527D01*
X149364022Y-151385527D02*
X149304499Y-151504575D01*
X149304499Y-151504575D02*
X149185451Y-151564098D01*
X149185451Y-151564098D02*
X149066403Y-151564098D01*
X148173546Y-151504575D02*
X148292594Y-151564098D01*
X148292594Y-151564098D02*
X148530689Y-151564098D01*
X148530689Y-151564098D02*
X148649736Y-151504575D01*
X148649736Y-151504575D02*
X148709260Y-151385527D01*
X148709260Y-151385527D02*
X148709260Y-150909336D01*
X148709260Y-150909336D02*
X148649736Y-150790289D01*
X148649736Y-150790289D02*
X148530689Y-150730765D01*
X148530689Y-150730765D02*
X148292594Y-150730765D01*
X148292594Y-150730765D02*
X148173546Y-150790289D01*
X148173546Y-150790289D02*
X148114022Y-150909336D01*
X148114022Y-150909336D02*
X148114022Y-151028384D01*
X148114022Y-151028384D02*
X148709260Y-151147432D01*
X147578307Y-150730765D02*
X147578307Y-151564098D01*
X147578307Y-150849813D02*
X147518784Y-150790289D01*
X147518784Y-150790289D02*
X147399736Y-150730765D01*
X147399736Y-150730765D02*
X147221165Y-150730765D01*
X147221165Y-150730765D02*
X147102117Y-150790289D01*
X147102117Y-150790289D02*
X147042593Y-150909336D01*
X147042593Y-150909336D02*
X147042593Y-151564098D01*
X146506879Y-151504575D02*
X146387832Y-151564098D01*
X146387832Y-151564098D02*
X146149736Y-151564098D01*
X146149736Y-151564098D02*
X146030689Y-151504575D01*
X146030689Y-151504575D02*
X145971165Y-151385527D01*
X145971165Y-151385527D02*
X145971165Y-151326003D01*
X145971165Y-151326003D02*
X146030689Y-151206955D01*
X146030689Y-151206955D02*
X146149736Y-151147432D01*
X146149736Y-151147432D02*
X146328308Y-151147432D01*
X146328308Y-151147432D02*
X146447355Y-151087908D01*
X146447355Y-151087908D02*
X146506879Y-150968860D01*
X146506879Y-150968860D02*
X146506879Y-150909336D01*
X146506879Y-150909336D02*
X146447355Y-150790289D01*
X146447355Y-150790289D02*
X146328308Y-150730765D01*
X146328308Y-150730765D02*
X146149736Y-150730765D01*
X146149736Y-150730765D02*
X146030689Y-150790289D01*
X157161641Y-152445646D02*
X157102117Y-152386122D01*
X157102117Y-152386122D02*
X156983070Y-152326598D01*
X156983070Y-152326598D02*
X156685451Y-152326598D01*
X156685451Y-152326598D02*
X156566403Y-152386122D01*
X156566403Y-152386122D02*
X156506879Y-152445646D01*
X156506879Y-152445646D02*
X156447356Y-152564694D01*
X156447356Y-152564694D02*
X156447356Y-152683741D01*
X156447356Y-152683741D02*
X156506879Y-152862313D01*
X156506879Y-152862313D02*
X157221165Y-153576598D01*
X157221165Y-153576598D02*
X156447356Y-153576598D01*
X155673546Y-152326598D02*
X155554499Y-152326598D01*
X155554499Y-152326598D02*
X155435451Y-152386122D01*
X155435451Y-152386122D02*
X155375927Y-152445646D01*
X155375927Y-152445646D02*
X155316403Y-152564694D01*
X155316403Y-152564694D02*
X155256880Y-152802789D01*
X155256880Y-152802789D02*
X155256880Y-153100408D01*
X155256880Y-153100408D02*
X155316403Y-153338503D01*
X155316403Y-153338503D02*
X155375927Y-153457551D01*
X155375927Y-153457551D02*
X155435451Y-153517075D01*
X155435451Y-153517075D02*
X155554499Y-153576598D01*
X155554499Y-153576598D02*
X155673546Y-153576598D01*
X155673546Y-153576598D02*
X155792594Y-153517075D01*
X155792594Y-153517075D02*
X155852118Y-153457551D01*
X155852118Y-153457551D02*
X155911641Y-153338503D01*
X155911641Y-153338503D02*
X155971165Y-153100408D01*
X155971165Y-153100408D02*
X155971165Y-152802789D01*
X155971165Y-152802789D02*
X155911641Y-152564694D01*
X155911641Y-152564694D02*
X155852118Y-152445646D01*
X155852118Y-152445646D02*
X155792594Y-152386122D01*
X155792594Y-152386122D02*
X155673546Y-152326598D01*
X154780689Y-152445646D02*
X154721165Y-152386122D01*
X154721165Y-152386122D02*
X154602118Y-152326598D01*
X154602118Y-152326598D02*
X154304499Y-152326598D01*
X154304499Y-152326598D02*
X154185451Y-152386122D01*
X154185451Y-152386122D02*
X154125927Y-152445646D01*
X154125927Y-152445646D02*
X154066404Y-152564694D01*
X154066404Y-152564694D02*
X154066404Y-152683741D01*
X154066404Y-152683741D02*
X154125927Y-152862313D01*
X154125927Y-152862313D02*
X154840213Y-153576598D01*
X154840213Y-153576598D02*
X154066404Y-153576598D01*
X152994975Y-152743265D02*
X152994975Y-153576598D01*
X153292594Y-152267075D02*
X153590213Y-153159932D01*
X153590213Y-153159932D02*
X152816404Y-153159932D01*
X152340213Y-153100408D02*
X151387833Y-153100408D01*
X150554499Y-152326598D02*
X150435452Y-152326598D01*
X150435452Y-152326598D02*
X150316404Y-152386122D01*
X150316404Y-152386122D02*
X150256880Y-152445646D01*
X150256880Y-152445646D02*
X150197356Y-152564694D01*
X150197356Y-152564694D02*
X150137833Y-152802789D01*
X150137833Y-152802789D02*
X150137833Y-153100408D01*
X150137833Y-153100408D02*
X150197356Y-153338503D01*
X150197356Y-153338503D02*
X150256880Y-153457551D01*
X150256880Y-153457551D02*
X150316404Y-153517075D01*
X150316404Y-153517075D02*
X150435452Y-153576598D01*
X150435452Y-153576598D02*
X150554499Y-153576598D01*
X150554499Y-153576598D02*
X150673547Y-153517075D01*
X150673547Y-153517075D02*
X150733071Y-153457551D01*
X150733071Y-153457551D02*
X150792594Y-153338503D01*
X150792594Y-153338503D02*
X150852118Y-153100408D01*
X150852118Y-153100408D02*
X150852118Y-152802789D01*
X150852118Y-152802789D02*
X150792594Y-152564694D01*
X150792594Y-152564694D02*
X150733071Y-152445646D01*
X150733071Y-152445646D02*
X150673547Y-152386122D01*
X150673547Y-152386122D02*
X150554499Y-152326598D01*
X149661642Y-152445646D02*
X149602118Y-152386122D01*
X149602118Y-152386122D02*
X149483071Y-152326598D01*
X149483071Y-152326598D02*
X149185452Y-152326598D01*
X149185452Y-152326598D02*
X149066404Y-152386122D01*
X149066404Y-152386122D02*
X149006880Y-152445646D01*
X149006880Y-152445646D02*
X148947357Y-152564694D01*
X148947357Y-152564694D02*
X148947357Y-152683741D01*
X148947357Y-152683741D02*
X149006880Y-152862313D01*
X149006880Y-152862313D02*
X149721166Y-153576598D01*
X149721166Y-153576598D02*
X148947357Y-153576598D01*
X157102117Y-155589098D02*
X157102117Y-154339098D01*
X156387832Y-155589098D02*
X156923546Y-154874813D01*
X156387832Y-154339098D02*
X157102117Y-155053384D01*
X155375927Y-155529575D02*
X155494975Y-155589098D01*
X155494975Y-155589098D02*
X155733070Y-155589098D01*
X155733070Y-155589098D02*
X155852117Y-155529575D01*
X155852117Y-155529575D02*
X155911641Y-155410527D01*
X155911641Y-155410527D02*
X155911641Y-154934336D01*
X155911641Y-154934336D02*
X155852117Y-154815289D01*
X155852117Y-154815289D02*
X155733070Y-154755765D01*
X155733070Y-154755765D02*
X155494975Y-154755765D01*
X155494975Y-154755765D02*
X155375927Y-154815289D01*
X155375927Y-154815289D02*
X155316403Y-154934336D01*
X155316403Y-154934336D02*
X155316403Y-155053384D01*
X155316403Y-155053384D02*
X155911641Y-155172432D01*
X154899736Y-154755765D02*
X154602117Y-155589098D01*
X154304498Y-154755765D02*
X154602117Y-155589098D01*
X154602117Y-155589098D02*
X154721165Y-155886717D01*
X154721165Y-155886717D02*
X154780688Y-155946241D01*
X154780688Y-155946241D02*
X154899736Y-156005765D01*
X152459260Y-154934336D02*
X152875926Y-154934336D01*
X152875926Y-155589098D02*
X152875926Y-154339098D01*
X152875926Y-154339098D02*
X152280688Y-154339098D01*
X151625926Y-155589098D02*
X151744974Y-155529575D01*
X151744974Y-155529575D02*
X151804497Y-155470051D01*
X151804497Y-155470051D02*
X151864021Y-155351003D01*
X151864021Y-155351003D02*
X151864021Y-154993860D01*
X151864021Y-154993860D02*
X151804497Y-154874813D01*
X151804497Y-154874813D02*
X151744974Y-154815289D01*
X151744974Y-154815289D02*
X151625926Y-154755765D01*
X151625926Y-154755765D02*
X151447355Y-154755765D01*
X151447355Y-154755765D02*
X151328307Y-154815289D01*
X151328307Y-154815289D02*
X151268783Y-154874813D01*
X151268783Y-154874813D02*
X151209259Y-154993860D01*
X151209259Y-154993860D02*
X151209259Y-155351003D01*
X151209259Y-155351003D02*
X151268783Y-155470051D01*
X151268783Y-155470051D02*
X151328307Y-155529575D01*
X151328307Y-155529575D02*
X151447355Y-155589098D01*
X151447355Y-155589098D02*
X151625926Y-155589098D01*
X150673545Y-155589098D02*
X150673545Y-154339098D01*
X150673545Y-154815289D02*
X150554498Y-154755765D01*
X150554498Y-154755765D02*
X150316403Y-154755765D01*
X150316403Y-154755765D02*
X150197355Y-154815289D01*
X150197355Y-154815289D02*
X150137831Y-154874813D01*
X150137831Y-154874813D02*
X150078307Y-154993860D01*
X150078307Y-154993860D02*
X150078307Y-155351003D01*
X150078307Y-155351003D02*
X150137831Y-155470051D01*
X150137831Y-155470051D02*
X150197355Y-155529575D01*
X150197355Y-155529575D02*
X150316403Y-155589098D01*
X150316403Y-155589098D02*
X150554498Y-155589098D01*
X150554498Y-155589098D02*
X150673545Y-155529575D01*
X148709260Y-154755765D02*
X148411641Y-155589098D01*
X148411641Y-155589098D02*
X148114022Y-154755765D01*
X147697355Y-154458146D02*
X147637831Y-154398622D01*
X147637831Y-154398622D02*
X147518784Y-154339098D01*
X147518784Y-154339098D02*
X147221165Y-154339098D01*
X147221165Y-154339098D02*
X147102117Y-154398622D01*
X147102117Y-154398622D02*
X147042593Y-154458146D01*
X147042593Y-154458146D02*
X146983070Y-154577194D01*
X146983070Y-154577194D02*
X146983070Y-154696241D01*
X146983070Y-154696241D02*
X147042593Y-154874813D01*
X147042593Y-154874813D02*
X147756879Y-155589098D01*
X147756879Y-155589098D02*
X146983070Y-155589098D01*
D11*
X140331009Y-145614285D02*
X140378628Y-145757142D01*
X140378628Y-145757142D02*
X140426247Y-145804761D01*
X140426247Y-145804761D02*
X140521485Y-145852380D01*
X140521485Y-145852380D02*
X140664342Y-145852380D01*
X140664342Y-145852380D02*
X140759580Y-145804761D01*
X140759580Y-145804761D02*
X140807200Y-145757142D01*
X140807200Y-145757142D02*
X140854819Y-145661904D01*
X140854819Y-145661904D02*
X140854819Y-145280952D01*
X140854819Y-145280952D02*
X139854819Y-145280952D01*
X139854819Y-145280952D02*
X139854819Y-145614285D01*
X139854819Y-145614285D02*
X139902438Y-145709523D01*
X139902438Y-145709523D02*
X139950057Y-145757142D01*
X139950057Y-145757142D02*
X140045295Y-145804761D01*
X140045295Y-145804761D02*
X140140533Y-145804761D01*
X140140533Y-145804761D02*
X140235771Y-145757142D01*
X140235771Y-145757142D02*
X140283390Y-145709523D01*
X140283390Y-145709523D02*
X140331009Y-145614285D01*
X140331009Y-145614285D02*
X140331009Y-145280952D01*
X139854819Y-146138095D02*
X139854819Y-146709523D01*
X140854819Y-146423809D02*
X139854819Y-146423809D01*
X140854819Y-147566666D02*
X140854819Y-146995238D01*
X140854819Y-147280952D02*
X139854819Y-147280952D01*
X139854819Y-147280952D02*
X139997676Y-147185714D01*
X139997676Y-147185714D02*
X140092914Y-147090476D01*
X140092914Y-147090476D02*
X140140533Y-146995238D01*
D12*
%TO.C,BT1*%
X157450000Y-149095000D02*
X158450000Y-149095000D01*
X157950000Y-148595000D02*
X157950000Y-149595000D01*
X145250000Y-148595000D02*
X145250000Y-149595000D01*
X163895000Y-148090000D02*
X163895000Y-95110000D01*
X139305000Y-148090000D02*
X163895000Y-148090000D01*
X163895000Y-95110000D02*
X139305000Y-95110000D01*
X139305000Y-95110000D02*
X139305000Y-148090000D01*
%TD*%
%LPC*%
D13*
%TO.C,BT1*%
X157950000Y-145500000D03*
X145250000Y-145500000D03*
%TD*%
D14*
%TO.C,REF\u002A\u002A*%
X142750000Y-91000000D03*
D15*
X142750000Y-91000000D03*
%TD*%
D14*
%TO.C,REF\u002A\u002A*%
X163250000Y-152500000D03*
D15*
X163250000Y-152500000D03*
%TD*%
%LPD*%
M02*
