%TF.GenerationSoftware,KiCad,Pcbnew,7.0.7*%
%TF.CreationDate,2024-02-09T14:16:55-05:00*%
%TF.ProjectId,key-fob-pcb,6b65792d-666f-4622-9d70-63622e6b6963,rev?*%
%TF.SameCoordinates,Original*%
%TF.FileFunction,Drillmap*%
%TF.FilePolarity,Positive*%
%FSLAX45Y45*%
G04 Gerber Fmt 4.5, Leading zero omitted, Abs format (unit mm)*
G04 Created by KiCad (PCBNEW 7.0.7) date 2024-02-09 14:16:55*
%MOMM*%
%LPD*%
G01*
G04 APERTURE LIST*
%ADD10C,0.038100*%
%ADD11C,0.200000*%
G04 APERTURE END LIST*
D10*
X13825000Y-15700000D02*
X16775000Y-15700000D01*
X14725000Y-8650000D02*
X13825000Y-8650000D01*
X14725000Y-9425000D02*
X14725000Y-8650000D01*
X16775000Y-9425000D02*
X14725000Y-9425000D01*
X16775000Y-15700000D02*
X16775000Y-9425000D01*
X13825000Y-8650000D02*
X13825000Y-15700000D01*
D11*
X14083872Y-16013389D02*
X14083872Y-15813389D01*
X14083872Y-15813389D02*
X14131491Y-15813389D01*
X14131491Y-15813389D02*
X14160062Y-15822913D01*
X14160062Y-15822913D02*
X14179110Y-15841960D01*
X14179110Y-15841960D02*
X14188634Y-15861008D01*
X14188634Y-15861008D02*
X14198157Y-15899103D01*
X14198157Y-15899103D02*
X14198157Y-15927674D01*
X14198157Y-15927674D02*
X14188634Y-15965770D01*
X14188634Y-15965770D02*
X14179110Y-15984817D01*
X14179110Y-15984817D02*
X14160062Y-16003865D01*
X14160062Y-16003865D02*
X14131491Y-16013389D01*
X14131491Y-16013389D02*
X14083872Y-16013389D01*
X14283872Y-16013389D02*
X14283872Y-15880055D01*
X14283872Y-15918151D02*
X14293396Y-15899103D01*
X14293396Y-15899103D02*
X14302919Y-15889579D01*
X14302919Y-15889579D02*
X14321967Y-15880055D01*
X14321967Y-15880055D02*
X14341015Y-15880055D01*
X14407681Y-16013389D02*
X14407681Y-15880055D01*
X14407681Y-15813389D02*
X14398157Y-15822913D01*
X14398157Y-15822913D02*
X14407681Y-15832436D01*
X14407681Y-15832436D02*
X14417205Y-15822913D01*
X14417205Y-15822913D02*
X14407681Y-15813389D01*
X14407681Y-15813389D02*
X14407681Y-15832436D01*
X14531491Y-16013389D02*
X14512443Y-16003865D01*
X14512443Y-16003865D02*
X14502919Y-15984817D01*
X14502919Y-15984817D02*
X14502919Y-15813389D01*
X14636253Y-16013389D02*
X14617205Y-16003865D01*
X14617205Y-16003865D02*
X14607681Y-15984817D01*
X14607681Y-15984817D02*
X14607681Y-15813389D01*
X14864824Y-16013389D02*
X14864824Y-15813389D01*
X14864824Y-15813389D02*
X14931491Y-15956246D01*
X14931491Y-15956246D02*
X14998157Y-15813389D01*
X14998157Y-15813389D02*
X14998157Y-16013389D01*
X15179110Y-16013389D02*
X15179110Y-15908627D01*
X15179110Y-15908627D02*
X15169586Y-15889579D01*
X15169586Y-15889579D02*
X15150538Y-15880055D01*
X15150538Y-15880055D02*
X15112443Y-15880055D01*
X15112443Y-15880055D02*
X15093396Y-15889579D01*
X15179110Y-16003865D02*
X15160062Y-16013389D01*
X15160062Y-16013389D02*
X15112443Y-16013389D01*
X15112443Y-16013389D02*
X15093396Y-16003865D01*
X15093396Y-16003865D02*
X15083872Y-15984817D01*
X15083872Y-15984817D02*
X15083872Y-15965770D01*
X15083872Y-15965770D02*
X15093396Y-15946722D01*
X15093396Y-15946722D02*
X15112443Y-15937198D01*
X15112443Y-15937198D02*
X15160062Y-15937198D01*
X15160062Y-15937198D02*
X15179110Y-15927674D01*
X15274348Y-15880055D02*
X15274348Y-16080055D01*
X15274348Y-15889579D02*
X15293396Y-15880055D01*
X15293396Y-15880055D02*
X15331491Y-15880055D01*
X15331491Y-15880055D02*
X15350538Y-15889579D01*
X15350538Y-15889579D02*
X15360062Y-15899103D01*
X15360062Y-15899103D02*
X15369586Y-15918151D01*
X15369586Y-15918151D02*
X15369586Y-15975293D01*
X15369586Y-15975293D02*
X15360062Y-15994341D01*
X15360062Y-15994341D02*
X15350538Y-16003865D01*
X15350538Y-16003865D02*
X15331491Y-16013389D01*
X15331491Y-16013389D02*
X15293396Y-16013389D01*
X15293396Y-16013389D02*
X15274348Y-16003865D01*
X15455300Y-15994341D02*
X15464824Y-16003865D01*
X15464824Y-16003865D02*
X15455300Y-16013389D01*
X15455300Y-16013389D02*
X15445777Y-16003865D01*
X15445777Y-16003865D02*
X15455300Y-15994341D01*
X15455300Y-15994341D02*
X15455300Y-16013389D01*
X15455300Y-15889579D02*
X15464824Y-15899103D01*
X15464824Y-15899103D02*
X15455300Y-15908627D01*
X15455300Y-15908627D02*
X15445777Y-15899103D01*
X15445777Y-15899103D02*
X15455300Y-15889579D01*
X15455300Y-15889579D02*
X15455300Y-15908627D01*
M02*
